<?xml version="1.0" encoding="UTF-8" standalone="no"?>
<!-- Generator: Adobe Illustrator 21.0.0, SVG Export Plug-In . SVG Version: 6.00 Build 0)  -->

<svg
   xmlns:dc="http://purl.org/dc/elements/1.1/"
   xmlns:cc="http://creativecommons.org/ns#"
   xmlns:rdf="http://www.w3.org/1999/02/22-rdf-syntax-ns#"
   xmlns:svg="http://www.w3.org/2000/svg"
   xmlns="http://www.w3.org/2000/svg"
   xmlns:sodipodi="http://sodipodi.sourceforge.net/DTD/sodipodi-0.dtd"
   xmlns:inkscape="http://www.inkscape.org/namespaces/inkscape"
   version="1.1"
   id="Layer_1"
   x="0px"
   y="0px"
   viewBox="0 0 1000 1000"
   style="enable-background:new 0 0 1000 1000;"
   xml:space="preserve"
   sodipodi:docname="internal.svg"
   inkscape:version="0.92.3 (2405546, 2018-03-11)"><metadata
   id="metadata1583"><rdf:RDF><cc:Work
       rdf:about=""><dc:format>image/svg+xml</dc:format><dc:type
         rdf:resource="http://purl.org/dc/dcmitype/StillImage" /><dc:title></dc:title></cc:Work></rdf:RDF></metadata><defs
   id="defs1581" /><sodipodi:namedview
   pagecolor="#ffffff"
   bordercolor="#666666"
   borderopacity="1"
   objecttolerance="10"
   gridtolerance="10"
   guidetolerance="10"
   inkscape:pageopacity="0"
   inkscape:pageshadow="2"
   inkscape:window-width="1920"
   inkscape:window-height="1001"
   id="namedview1579"
   showgrid="false"
   inkscape:zoom="0.236"
   inkscape:cx="500"
   inkscape:cy="500"
   inkscape:window-x="-9"
   inkscape:window-y="-9"
   inkscape:window-maximized="1"
   inkscape:current-layer="Layer_1" />
<style
   type="text/css"
   id="style1566">
	.st0{fill:#FFFFFF;stroke:#1E4A9A;stroke-width:27;stroke-linejoin:round;}
	.st1{fill:#1E4A9A;}
</style>
<circle
   id="Ellipse_1_copy"
   class="st0"
   cx="502.15906"
   cy="499.97263"
   r="455.05487"
   style="fill:#ffffff;stroke:#1e4a9a;stroke-width:57.6830101;stroke-linejoin:round" />
<path
   class="st1"
   d="m 111.19645,771.29646 305.50633,4.2728 c 0,0 26.91874,77.76522 87.59273,72.63787 60.67398,-5.12737 79.04709,-64.09223 79.04709,-64.09223 l 324.73398,-19.22767 c 0,0 -163.00791,235.00481 -399.50825,224.32279 C 272.06798,978.528 111.19645,771.29646 111.19645,771.29646 Z"
   id="path1569"
   inkscape:connector-curvature="0"
   style="fill:#1e4a9a;stroke-width:2.13640785" />
<path
   class="st1"
   d="m 508.56833,593.9746 c 0,0 -46.5737,53.19656 -21.36409,68.36506 25.20962,15.16849 38.45534,-4.27282 38.45534,-4.27282 z"
   id="path1571"
   inkscape:connector-curvature="0"
   style="fill:#1e4a9a;stroke-width:2.13640785" />
<path
   class="st1"
   d="m 504.29551,395.28867 c -1.92277,9.61384 -33.11433,52.55564 -25.63689,70.50146 7.47742,17.94583 39.95082,22.85957 44.86456,4.27282 4.91373,-18.58675 -17.30491,-84.38811 -19.22767,-74.77428 z"
   id="path1573"
   inkscape:connector-curvature="0"
   style="fill:#1e4a9a;stroke-width:2.13640785" />
<path
   class="st1"
   d="m 641.02561,561.92849 c 0,0 0.64092,-33.96889 21.36408,-57.68302 16.87762,-19.01403 30.76427,-40.59175 40.59175,-64.09223 7.90471,-19.01403 24.56869,-15.80942 14.95485,8.54563 -9.61383,24.35505 -41.65996,47.00097 -53.41019,81.18349 -11.75024,34.18253 -18.37312,53.62385 -23.50049,32.04613 z m -10.68204,108.9568 c 0,0 27.13238,-50.63287 57.68301,-53.4102 30.55063,-2.77733 63.23767,-20.72316 74.77428,-32.04612 11.5366,-11.32296 19.86859,-30.97791 21.36407,-19.22766 1.49549,11.75023 -27.34602,54.26475 -53.41019,57.683 -26.06418,3.41826 -36.74622,11.75024 -59.81942,34.18253 -23.07321,22.43229 -39.30991,27.98694 -40.59175,12.81845 z"
   id="path1575"
   inkscape:connector-curvature="0"
   style="fill:#1e4a9a;stroke-width:2.13640785" />
<path
   id="Shape_43_copy"
   class="st1"
   d="m 348.33773,557.44203 c 0,0 -0.64092,-34.18253 -21.36408,-57.89665 -16.87761,-19.01403 -30.76427,-40.80539 -40.59174,-64.30588 -7.90471,-19.01403 -24.56869,-15.80941 -14.95486,8.54564 9.61384,24.35504 41.65995,47.21461 53.4102,81.39713 11.75024,34.18253 18.3731,53.83748 23.50048,32.25976 z m 10.68205,109.17044 c 0,0 -27.13238,-50.63287 -57.68302,-53.62384 -30.55064,-2.99097 -63.23768,-20.93679 -74.77427,-32.04611 -11.5366,-11.10932 -19.86859,-30.97791 -21.36408,-19.22767 -1.49549,11.75024 27.34602,54.4784 53.41019,57.89664 26.06418,3.41826 36.74623,11.9639 59.81942,34.18253 23.0732,22.21865 39.30991,27.98695 40.59176,12.81845 z"
   inkscape:connector-curvature="0"
   style="fill:#1e4a9a;stroke-width:2.13640785" />
</svg>