<?xml version="1.0" encoding="UTF-8" standalone="no"?>
<!-- Generator: Adobe Illustrator 21.0.0, SVG Export Plug-In . SVG Version: 6.00 Build 0)  -->

<svg
   xmlns:dc="http://purl.org/dc/elements/1.1/"
   xmlns:cc="http://creativecommons.org/ns#"
   xmlns:rdf="http://www.w3.org/1999/02/22-rdf-syntax-ns#"
   xmlns:svg="http://www.w3.org/2000/svg"
   xmlns="http://www.w3.org/2000/svg"
   xmlns:sodipodi="http://sodipodi.sourceforge.net/DTD/sodipodi-0.dtd"
   xmlns:inkscape="http://www.inkscape.org/namespaces/inkscape"
   version="1.1"
   id="Layer_1"
   x="0px"
   y="0px"
   viewBox="0 0 1000 1000"
   style="enable-background:new 0 0 1000 1000;"
   xml:space="preserve"
   sodipodi:docname="marine.svg"
   inkscape:version="0.92.3 (2405546, 2018-03-11)"><metadata
   id="metadata2773"><rdf:RDF><cc:Work
       rdf:about=""><dc:format>image/svg+xml</dc:format><dc:type
         rdf:resource="http://purl.org/dc/dcmitype/StillImage" /><dc:title></dc:title></cc:Work></rdf:RDF></metadata><defs
   id="defs2771" /><sodipodi:namedview
   pagecolor="#ffffff"
   bordercolor="#666666"
   borderopacity="1"
   objecttolerance="10"
   gridtolerance="10"
   guidetolerance="10"
   inkscape:pageopacity="0"
   inkscape:pageshadow="2"
   inkscape:window-width="1920"
   inkscape:window-height="1001"
   id="namedview2769"
   showgrid="false"
   inkscape:zoom="0.236"
   inkscape:cx="500"
   inkscape:cy="500"
   inkscape:window-x="-9"
   inkscape:window-y="-9"
   inkscape:window-maximized="1"
   inkscape:current-layer="Layer_1" />
<style
   type="text/css"
   id="style2749">
	.st0{fill:#1E4A9A;}
</style>









<g
   transform="translate(-12.714034,-2.000002)"
   id="g2721"><path
     class="cls-1"
     d="m 447.24877,738 c 0,0 -284.42558,-20.261 -263.98941,-154 0,0 28.65617,-4.177 72.65763,15 L 115.44556,446 c 0,0 10.39005,40.811 -3.63288,101 -13.14498,56.417 -0.43715,151.426 62.96995,214 63.40711,62.574 172.79197,83.994 243.40308,112 72.87682,28.9 90.82205,83 90.82205,83 V 219 h -239.7702 v 72 h 181.64409 z"
     id="path2150"
     inkscape:connector-curvature="0"
     style="fill:#1e4a9a;fill-rule:evenodd;stroke-width:1.10043657" /><path
     id="Shape_1_copy"
     data-name="Shape 1 copy"
     class="cls-1"
     d="m 569.5788,738 c 0,0 284.53214,-20.261 264.0875,-154 0,0 -28.66707,-4.177 -72.68428,15 L 901.50673,446 c 0,0 -10.39367,40.811 3.63288,101 13.14861,56.417 0.43716,151.426 -62.99417,214 -63.43133,62.574 -172.85373,83.994 -243.49269,112 -72.89983,28.9 -90.85595,83 -90.85595,83 V 219 h 239.86102 v 72 H 565.9447 Z"
     inkscape:connector-curvature="0"
     style="fill:#1e4a9a;fill-rule:evenodd;stroke-width:1.10043657" /><path
     class="cls-1"
     d="M 624.04902,148.5 A 121.70154,100.5 0 1 1 502.34748,48 121.70154,100.5 0 0 1 624.04902,148.5 Z M 502.34748,83.175 A 79.106001,65.325 0 1 0 581.45469,148.5 79.107212,65.326 0 0 0 502.34748,83.175 Z"
     id="path2153"
     inkscape:connector-curvature="0"
     style="fill:#1e4a9a;fill-rule:evenodd;stroke-width:1.10043657" /></g></svg>