<?xml version="1.0" encoding="UTF-8" standalone="no"?>
<!-- Generator: Adobe Illustrator 21.0.0, SVG Export Plug-In . SVG Version: 6.00 Build 0)  -->

<svg
   xmlns:dc="http://purl.org/dc/elements/1.1/"
   xmlns:cc="http://creativecommons.org/ns#"
   xmlns:rdf="http://www.w3.org/1999/02/22-rdf-syntax-ns#"
   xmlns:svg="http://www.w3.org/2000/svg"
   xmlns="http://www.w3.org/2000/svg"
   xmlns:sodipodi="http://sodipodi.sourceforge.net/DTD/sodipodi-0.dtd"
   xmlns:inkscape="http://www.inkscape.org/namespaces/inkscape"
   version="1.1"
   id="Layer_1"
   x="0px"
   y="0px"
   viewBox="0 0 1000 1000"
   style="enable-background:new 0 0 1000 1000;"
   xml:space="preserve"
   sodipodi:docname="surface.svg"
   inkscape:version="0.92.3 (2405546, 2018-03-11)"><metadata
   id="metadata2773"><rdf:RDF><cc:Work
       rdf:about=""><dc:format>image/svg+xml</dc:format><dc:type
         rdf:resource="http://purl.org/dc/dcmitype/StillImage" /><dc:title /></cc:Work></rdf:RDF></metadata><defs
   id="defs2771" /><sodipodi:namedview
   pagecolor="#ffffff"
   bordercolor="#666666"
   borderopacity="1"
   objecttolerance="10"
   gridtolerance="10"
   guidetolerance="10"
   inkscape:pageopacity="0"
   inkscape:pageshadow="2"
   inkscape:window-width="1920"
   inkscape:window-height="1001"
   id="namedview2769"
   showgrid="false"
   inkscape:zoom="0.236"
   inkscape:cx="-245.76271"
   inkscape:cy="500"
   inkscape:window-x="-9"
   inkscape:window-y="-9"
   inkscape:window-maximized="1"
   inkscape:current-layer="Layer_1" />
<style
   type="text/css"
   id="style2749">
	.st0{fill:#1E4A9A;}
</style>








<g
   id="g9543"><rect
     style="fill:#1e4a9a;stroke-width:1.66502392"
     id="rect2751"
     height="111.5566"
     width="930.74835"
     class="st0"
     y="760.71759"
     x="37.033901" /><path
     style="fill:#1e4a9a;stroke-width:1.66502392"
     inkscape:connector-curvature="0"
     id="path2753"
     d="m 708.03853,615.8605 c 0,0 -19.48077,-99.23544 54.94582,-138.19698 0,0 63.10435,-18.98128 96.57139,18.31525 33.46696,37.29654 27.97241,53.78028 28.30541,76.59111 0.33299,22.81082 1.66498,43.29062 1.66498,43.29062 z"
     class="st0" /><path
     style="fill:#1e4a9a;stroke-width:1.66502392"
     inkscape:connector-curvature="0"
     id="path2755"
     d="m 606.47208,762.3826 c 0,0 0.1665,-293.37722 3.33005,-328.00971 3.16354,-34.6325 47.61968,-65.93495 79.92115,-66.60095 32.30146,-0.66601 93.57436,2.33103 111.55658,54.94579 17.9823,52.61474 9.99019,54.94579 9.99019,54.94579 h -29.97049 c 0,0 -9.8236,-60.77339 -36.6305,-73.26107 -26.80689,-12.48767 -93.40785,-7.9921 -101.56646,36.63053 -8.15861,44.62265 -6.66009,326.34469 -6.66009,326.34469 z"
     class="st0" /><path
     style="fill:#1e4a9a;stroke-width:1.66502392"
     inkscape:connector-curvature="0"
     id="path2757"
     d="m 424.98446,446.02806 h 126.54182 l -14.98521,-21.64531 c 0,0 19.64728,-9.65714 18.31527,-24.97536 -1.33203,-15.31822 -6.4936,-28.80491 -23.31034,-28.30541 -16.81675,0.49951 -29.47093,-1.83152 -29.97043,-21.64532 0,0 2.33103,-6.49358 -6.66011,-6.66008 -8.99112,-0.1665 -20.81278,-1.49852 -21.6453,3.33004 0,0 -1.49852,9.49065 -1.66502,14.98521 -0.1665,5.49458 -4.32907,8.82464 -18.31527,9.99015 -13.9862,1.16552 -29.80392,0.83251 -31.63545,23.31034 -1.83153,22.47781 3.99605,25.14185 11.65517,26.64039 7.65911,1.49851 8.32512,1.66502 8.32512,1.66502 z"
     class="st0" /><path
     style="fill:#1e4a9a;stroke-width:1.66502392"
     inkscape:connector-curvature="0"
     id="path2759"
     d="M 81.989542,764.04763 V 181.28926 c 0,0 17.815755,-66.10145 84.916218,-63.27091 67.10047,2.83054 82.75169,43.62364 86.58125,68.26598 l 6.66009,577.7633 z"
     class="st0" /><path
     style="fill:#1e4a9a;stroke-width:1.66502392"
     inkscape:connector-curvature="0"
     id="path2761"
     d="m 245.16188,239.56509 c 4.66208,0 39.12807,-2.33103 44.95564,34.96551 5.8276,37.29652 -1.66502,496.17712 -1.66502,496.17712 l 31.63547,-4.99507 c 0,0 3.99605,-514.15939 -3.33006,-524.48253 -7.3261,-10.32315 -21.4788,-27.47289 -43.29062,-29.97043 -21.81181,-2.49754 -33.30047,-1.66503 -33.30047,-1.66503 0,0 0.333,29.97043 4.99506,29.97043 z"
     class="st0" /><path
     style="fill:#1e4a9a;stroke-width:1.66502392"
     inkscape:connector-curvature="0"
     id="path2763"
     d="m 245.16188,457.68322 c 0,0 116.21868,-7.6591 124.87679,4.99508 0,0 1.33203,29.97043 1.66503,48.28569 0.333,18.31526 -6.9931,141.02752 -3.33005,143.19206 l 308.02943,1.66502 13.3202,34.9655 c 0,0 -325.01268,-2.99704 -339.66488,-3.33005 -14.65221,-0.333 -7.82563,-25.80787 -8.32513,-36.63053 -0.49951,-10.82264 7.32611,-160.50829 -3.33004,-163.17233 l -96.57139,-1.66503 z"
     class="st0" /><rect
     style="fill:#1e4a9a;stroke-width:1.66502392"
     id="rect2765"
     height="342.9949"
     width="124.87679"
     class="st0"
     y="444.36298"
     x="424.98447" /><rect
     style="fill:#1e4a9a;stroke-width:1.66502392"
     height="256.4137"
     width="246.42352"
     class="st0"
     y="612.53046"
     x="676.40314"
     id="Rectangle_19_copy" /></g>
</svg>