<?xml version="1.0" encoding="UTF-8" standalone="no"?>
<svg
   xmlns:x="adobe:ns:meta/"
   xmlns:dc="http://purl.org/dc/elements/1.1/"
   xmlns:cc="http://creativecommons.org/ns#"
   xmlns:rdf="http://www.w3.org/1999/02/22-rdf-syntax-ns#"
   xmlns:svg="http://www.w3.org/2000/svg"
   xmlns="http://www.w3.org/2000/svg"
   xmlns:sodipodi="http://sodipodi.sourceforge.net/DTD/sodipodi-0.dtd"
   xmlns:inkscape="http://www.inkscape.org/namespaces/inkscape"
   id="z2"
   width="1523"
   height="2708"
   viewBox="0 0 1523 2708"
   version="1.1"
   sodipodi:docname="ID-F-BA-FT.svg"
   inkscape:version="0.92.3 (2405546, 2018-03-11)"
   onload="window.parent.fnOnLoad(this)">
  <sodipodi:namedview
     pagecolor="#ffffff"
     bordercolor="#666666"
     borderopacity="1"
     objecttolerance="10"
     gridtolerance="10"
     guidetolerance="10"
     inkscape:pageopacity="0"
     inkscape:pageshadow="2"
     inkscape:window-width="2880"
     inkscape:window-height="1526"
     id="namedview13952"
     showgrid="false"
     inkscape:zoom="0.49299026"
     inkscape:cx="707.26719"
     inkscape:cy="1331.4756"
     inkscape:window-x="2869"
     inkscape:window-y="-11"
     inkscape:window-maximized="1"
     inkscape:current-layer="z2" />
  <metadata
     id="metadata13786">
<?xpacket begin="y" id="W5M0MpCehiHzreSzNTczkc9d"?>    <x:xmpmeta
       x:xmptk="Adobe XMP Core 5.6-c138 79.159824, 2016/09/14-01:09:01        ">
      <metadata>
        <rdf:RDF>
          <rdf:Description
             rdf:about="" />
          <cc:Work
             rdf:about="">
            <dc:format>image/svg+xml</dc:format>
            <dc:type
               rdf:resource="http://purl.org/dc/dcmitype/StillImage" />
          </cc:Work>
        </rdf:RDF>
      </metadata>
    </x:xmpmeta>
<?xpacket end="w"?>  </metadata>
  <defs
     id="defs13790">
    <style
       id="style13788">
      .cls-1 {
        fill: #fff;
        stroke: #000;
        stroke-width: 2px;
        fill-rule: evenodd;
      }
    </style>
    <marker
       inkscape:stockid="Arrow1Mend"
       orient="auto"
       refY="0"
       refX="0"
       id="marker6342"
       style="overflow:visible"
       inkscape:isstock="true">
      <path
         inkscape:connector-curvature="0"
         id="path6340"
         d="M 0,0 5,-5 -12.5,0 5,5 Z"
         style="fill:#000000;fill-opacity:1;fill-rule:evenodd;stroke:#000000;stroke-width:1.00000003pt;stroke-opacity:1"
         transform="matrix(-0.4,0,0,-0.4,-4,0)" />
    </marker>
    <marker
       inkscape:stockid="Arrow1Mstart"
       orient="auto"
       refY="0"
       refX="0"
       id="Arrow1Mstart"
       style="overflow:visible"
       inkscape:isstock="true">
      <path
         inkscape:connector-curvature="0"
         id="path5696"
         d="M 0,0 5,-5 -12.5,0 5,5 Z"
         style="fill:#000000;fill-opacity:1;fill-rule:evenodd;stroke:#000000;stroke-width:1.00000003pt;stroke-opacity:1"
         transform="matrix(0.4,0,0,0.4,4,0)" />
    </marker>
    <marker
       inkscape:stockid="Arrow1Mend"
       orient="auto"
       refY="0"
       refX="0"
       id="Arrow1Mend"
       style="overflow:visible"
       inkscape:isstock="true">
      <path
         inkscape:connector-curvature="0"
         id="path5699"
         d="M 0,0 5,-5 -12.5,0 5,5 Z"
         style="fill:#000000;fill-opacity:1;fill-rule:evenodd;stroke:#000000;stroke-width:1.00000003pt;stroke-opacity:1"
         transform="matrix(-0.4,0,0,-0.4,-4,0)" />
    </marker>
  </defs>
  <g
     id="ID-F-BA-FT-L-4"
     onclick="window.parent.fnShowDetailPart(this)"
     onmouseover="window.parent.fnOnMouseOver1(this)">
    <path
       id="path13849"
       d="m 1185,2157 -96,180 10,6 89,-171 z"
       class="cls-1"
       inkscape:connector-curvature="0"
       style="fill:#ffffff;fill-rule:evenodd;stroke:#000000;stroke-width:2px" />
    <path
       id="path13851"
       d="m 754,2156 75,192 7,-3 -81,-209 z"
       class="cls-1"
       inkscape:connector-curvature="0"
       style="fill:#ffffff;fill-rule:evenodd;stroke:#000000;stroke-width:2px" />
    <path
       id="path13853"
       d="m 699,2237 452,-299 5,11 -462,305 z"
       class="cls-1"
       inkscape:connector-curvature="0"
       style="fill:#ffffff;fill-rule:evenodd;stroke:#000000;stroke-width:2px" />
    <path
       id="path13855"
       d="m 819,2288 c -1.077,-2.64 -5,-120 -5,-120 l 7,-5 8,124 c 0,0 -8.924,3.64 -10,1 z"
       class="cls-1"
       inkscape:connector-curvature="0"
       style="fill:#ffffff;fill-rule:evenodd;stroke:#000000;stroke-width:2px" />
    <path
       id="path13857"
       d="m 745,2261 476,100 v 9 l -482,-98 z"
       class="cls-1"
       inkscape:connector-curvature="0"
       style="fill:#ffffff;fill-rule:evenodd;stroke:#000000;stroke-width:2px" />
    <path
       id="path13859"
       d="m 708,2379 18,-220 -6,-24 -23,230 z"
       class="cls-1"
       inkscape:connector-curvature="0"
       style="fill:#ffffff;fill-rule:evenodd;stroke:#000000;stroke-width:2px" />
    <path
       id="path13861"
       d="m 700,2381 32,-15 1,12 h -8 l 244,51 -7,-235 10,5 10,235 -14,7 -265,-53 z"
       class="cls-1"
       inkscape:connector-curvature="0"
       style="fill:#ffffff;fill-rule:evenodd;stroke:#000000;stroke-width:2px" />
    <path
       id="path13863"
       d="m 944,2086 12,222 8,3 -10,-232 z"
       class="cls-1"
       inkscape:connector-curvature="0"
       style="fill:#ffffff;fill-rule:evenodd;stroke:#000000;stroke-width:2px" />
    <path
       id="path13865"
       d="m 975,2358 206,-231 4,10 -209,236 z"
       class="cls-1"
       inkscape:connector-curvature="0"
       style="fill:#ffffff;fill-rule:evenodd;stroke:#000000;stroke-width:2px" />
    <path
       id="path13867"
       d="m 1095,2282 7,117 7,-4 -5,-112 z"
       class="cls-1"
       inkscape:connector-curvature="0"
       style="fill:#ffffff;fill-rule:evenodd;stroke:#000000;stroke-width:2px" />
    <path
       id="path13869"
       d="m 744,1950 211,46 6,-10 -220,-46 z"
       class="cls-1"
       inkscape:connector-curvature="0"
       style="fill:#ffffff;fill-rule:evenodd;stroke:#000000;stroke-width:2px" />
    <path
       id="path13871"
       d="m 755,2038 394,-107 3,9 -394,110 z"
       class="cls-1"
       inkscape:connector-curvature="0"
       style="fill:#ffffff;fill-rule:evenodd;stroke:#000000;stroke-width:2px" />
    <path
       id="path13873"
       d="m 755,2060 464,300 5,-10 -466,-302 z"
       class="cls-1"
       inkscape:connector-curvature="0"
       style="fill:#ffffff;fill-rule:evenodd;stroke:#000000;stroke-width:2px" />
    <path
       id="path13875"
       d="m 726,2498 497,-135 v 11 l -496,135 z"
       class="cls-1"
       inkscape:connector-curvature="0"
       style="fill:#ffffff;fill-rule:evenodd;stroke:#000000;stroke-width:2px" />
    <path
       id="path13877"
       d="m 744,2291 101,181 8,-4 -106,-194 z"
       class="cls-1"
       inkscape:connector-curvature="0"
       style="fill:#ffffff;fill-rule:evenodd;stroke:#000000;stroke-width:2px" />
    <path
       id="path13879"
       d="m 751,2255 v 17 l 86,141 5,-10 z"
       class="cls-1"
       inkscape:connector-curvature="0"
       style="fill:#ffffff;fill-rule:evenodd;stroke:#000000;stroke-width:2px" />
    <path
       id="path13881"
       d="m 734,1888 25,125 -10,21 -20,-125 z"
       class="cls-1"
       inkscape:connector-curvature="0"
       style="fill:#ffffff;fill-rule:evenodd;stroke:#000000;stroke-width:2px" />
    <path
       id="path13883"
       d="m 732,1851 424,89 -3,-14 -421,-86 z"
       class="cls-1"
       inkscape:connector-curvature="0"
       style="fill:#ffffff;fill-rule:evenodd;stroke:#000000;stroke-width:2px" />
    <path
       id="path13885"
       d="m 775,1611 -39,174 1,21 44,-172 z"
       class="cls-1"
       inkscape:connector-curvature="0"
       style="fill:#ffffff;fill-rule:evenodd;stroke:#000000;stroke-width:2px" />
    <path
       id="path13887"
       d="m 737,1939 206,-56 -2,13 -200,53 z"
       class="cls-1"
       inkscape:connector-curvature="0"
       style="fill:#ffffff;fill-rule:evenodd;stroke:#000000;stroke-width:2px" />
    <path
       id="path13889"
       d="m 950,1885 17,105 -11,5 -17,-111 z"
       class="cls-1"
       inkscape:connector-curvature="0"
       style="fill:#ffffff;fill-rule:evenodd;stroke:#000000;stroke-width:2px" />
    <path
       id="path13891"
       d="m 825,1100 204,40 -3,-9 -200,-40 z"
       class="cls-1"
       inkscape:connector-curvature="0"
       style="fill:#ffffff;fill-rule:evenodd;stroke:#000000;stroke-width:2px" />
    <path
       id="path13893"
       d="m 848,790 13,-17 -9,-5 -7,13 z"
       class="cls-1"
       inkscape:connector-curvature="0"
       style="fill:#ffffff;fill-rule:evenodd;stroke:#000000;stroke-width:2px" />
    <path
       id="path13895"
       d="m 798,1138 130,25 -10,10 -121,-26 z"
       class="cls-1"
       inkscape:connector-curvature="0"
       style="fill:#ffffff;fill-rule:evenodd;stroke:#000000;stroke-width:2px" />
    <path
       id="path13897"
       d="m 912,1108 7,59 9,-2 -7,-57 z"
       class="cls-1"
       inkscape:connector-curvature="0"
       style="fill:#ffffff;fill-rule:evenodd;stroke:#000000;stroke-width:2px" />
    <path
       id="path13899"
       d="m 824,1131 84,-24 v 9 l -86,25 z"
       class="cls-1"
       inkscape:connector-curvature="0"
       style="fill:#ffffff;fill-rule:evenodd;stroke:#000000;stroke-width:2px" />
    <path
       id="path13901"
       d="m 811,1202 265,291 6,-7 -265,-289 z"
       class="cls-1"
       inkscape:connector-curvature="0"
       style="fill:#ffffff;fill-rule:evenodd;stroke:#000000;stroke-width:2px" />
    <path
       id="path13903"
       d="m 772,1429 254,-276 -5,-13 -257,284 z"
       class="cls-1"
       inkscape:connector-curvature="0"
       style="fill:#ffffff;fill-rule:evenodd;stroke:#000000;stroke-width:2px" />
    <path
       id="path13905"
       d="m 769,1433 313,61 1,12 -315,-64 z"
       class="cls-1"
       inkscape:connector-curvature="0"
       style="fill:#ffffff;fill-rule:evenodd;stroke:#000000;stroke-width:2px" />
    <path
       id="path13907"
       d="m 772,1444 379,467 -1,14 -382,-472 z"
       class="cls-1"
       inkscape:connector-curvature="0"
       style="fill:#ffffff;fill-rule:evenodd;stroke:#000000;stroke-width:2px" />
    <path
       id="path13909"
       d="m 771,1472 14,85 -4,5 -18,-76 z"
       class="cls-1"
       inkscape:connector-curvature="0"
       style="fill:#ffffff;fill-rule:evenodd;stroke:#000000;stroke-width:2px" />
    <path
       id="path13911"
       d="m 791,1579 289,-81 4,13 -293,80 z"
       class="cls-1"
       inkscape:connector-curvature="0"
       style="fill:#ffffff;fill-rule:evenodd;stroke:#000000;stroke-width:2px" />
    <path
       id="path13913"
       d="m 765,2015 317,-503 7,8 -324,515 z"
       class="cls-1"
       inkscape:connector-curvature="0"
       style="fill:#ffffff;fill-rule:evenodd;stroke:#000000;stroke-width:2px" />
    <path
       id="path13915"
       d="m 774,1514 165,37 6,-4 -8,-81 -14,-2 10,76 -160,-37 z"
       class="cls-1"
       inkscape:connector-curvature="0"
       style="fill:#ffffff;fill-rule:evenodd;stroke:#000000;stroke-width:2px" />
    <path
       id="path13917"
       d="m 929,1467 -150,45 -5,-9 142,-41 z"
       class="cls-1"
       inkscape:connector-curvature="0"
       style="fill:#ffffff;fill-rule:evenodd;stroke:#000000;stroke-width:2px" />
    <path
       id="path13919"
       d="m 846,821 131,25 -1,-9 -129,-26 z"
       class="cls-1"
       inkscape:connector-curvature="0"
       style="fill:#ffffff;fill-rule:evenodd;stroke:#000000;stroke-width:2px" />
    <path
       id="path13921"
       d="m 843,847 72,15 -5,8 -70,-15 -3,-17 46,-13 21,7 z"
       class="cls-1"
       inkscape:connector-curvature="0"
       style="fill:#ffffff;fill-rule:evenodd;stroke:#000000;stroke-width:2px" />
    <path
       id="path13923"
       d="m 974,855 -154,314 v 23 L 987,855 Z"
       class="cls-1"
       inkscape:connector-curvature="0"
       style="fill:#ffffff;fill-rule:evenodd;stroke:#000000;stroke-width:2px" />
    <path
       id="path13925"
       d="m 1022,1136 -204,54 1,9 206,-55 z"
       class="cls-1"
       inkscape:connector-curvature="0"
       style="fill:#ffffff;fill-rule:evenodd;stroke:#000000;stroke-width:2px" />
    <path
       id="path13927"
       d="m 844,837 173,265 4,24 -187,-285 z"
       class="cls-1"
       inkscape:connector-curvature="0"
       style="fill:#ffffff;fill-rule:evenodd;stroke:#000000;stroke-width:2px" />
    <path
       id="path13929"
       d="m 977,838 -33,-34 5,-6 27,29 z"
       class="cls-1"
       inkscape:connector-curvature="0"
       style="fill:#ffffff;fill-rule:evenodd;stroke:#000000;stroke-width:2px" />
    <path
       id="path13931"
       d="m 840,877 137,-39 v 12 l -137,41 z"
       class="cls-1"
       inkscape:connector-curvature="0"
       style="fill:#ffffff;fill-rule:evenodd;stroke:#000000;stroke-width:2px" />
    <path
       id="path13933"
       d="m 965,799 255,1574 c 0,0 1.84,3.64 11,2 a 19.073,19.073 0 0 0 13,-9 L 989,795 Z"
       class="cls-1"
       inkscape:connector-curvature="0"
       style="fill:#ffffff;fill-rule:evenodd;stroke:#000000;stroke-width:2px" />
    <path
       id="path13935"
       d="M 815,765 675,2255 c 0,0 4.061,10.3 12,10 7.939,-0.3 16,-10 16,-10 L 834,770 Z"
       class="cls-1"
       inkscape:connector-curvature="0"
       style="fill:#ffffff;fill-rule:evenodd;stroke:#000000;stroke-width:2px" />
    <path
       id="path13937"
       d="m 911,825 -8,-1 4,36 7,-2 z"
       class="cls-1"
       inkscape:connector-curvature="0"
       style="fill:#ffffff;fill-rule:evenodd;stroke:#000000;stroke-width:2px" />
    <path
       id="path13939"
       d="m 702,2065 7,1 -8,291 -7,-5 z"
       class="cls-1"
       inkscape:connector-curvature="0"
       style="fill:#ffffff;fill-rule:evenodd;stroke:#000000;stroke-width:2px" />
    <path
       id="path13941"
       d="m 682,2256 33,235 6,-28 -31,-209 z"
       class="cls-1"
       inkscape:connector-curvature="0"
       style="fill:#ffffff;fill-rule:evenodd;stroke:#000000;stroke-width:2px" />
    <path
       id="path13943"
       d="M 847,832 736,2508 c 0,0 -11.618,5.29 -19,3 -7.382,-2.29 -7,-8 -7,-8 L 824,829 Z"
       class="cls-1"
       inkscape:connector-curvature="0"
       style="fill:#ffffff;fill-rule:evenodd;stroke:#000000;stroke-width:2px" />
    <path
       id="path13945"
       d="m 708,2035 32,74 2,-24 -20,-51 z"
       class="cls-1"
       inkscape:connector-curvature="0"
       style="fill:#ffffff;fill-rule:evenodd;stroke:#000000;stroke-width:2px" />
    <path
       id="path13947"
       d="m 738,2365 219,-58 5,10 -226,61 z"
       class="cls-1"
       inkscape:connector-curvature="0"
       style="fill:#ffffff;fill-rule:evenodd;stroke:#000000;stroke-width:2px" />
    <path
       id="path13949"
       d="m 720,1850 h 8 l 1,440 -8,63 z"
       class="cls-1"
       inkscape:connector-curvature="0"
       style="fill:#ffffff;fill-rule:evenodd;stroke:#000000;stroke-width:2px" />
  </g>
  <g
     id="ID-F-BA-FT-L-3"
     onclick="window.parent.fnShowDetailPart(this)"
     onmouseover="window.parent.fnOnMouseOver1(this)">
    <path
       style="fill:#ffffff;fill-rule:evenodd;stroke:#000000;stroke-width:2px"
       inkscape:connector-curvature="0"
       id="path13792"
       d="m 852.43432,699 93,105 5,-7 -98,-108 z"
       class="cls-1" />
    <path
       style="fill:#ffffff;fill-rule:evenodd;stroke:#000000;stroke-width:2px"
       inkscape:connector-curvature="0"
       id="path13794"
       d="m 814.43432,765 c 0,0 1.961,3.161 8,5 a 18.7,18.7 0 0 0 11,0 l 14,-128 -19,-6 z"
       class="cls-1" />
    <path
       style="fill:#ffffff;fill-rule:evenodd;stroke:#000000;stroke-width:2px"
       inkscape:connector-curvature="0"
       id="path13796"
       d="m 948.43432,659 -95,109 8,5 89,-103 z"
       class="cls-1" />
    <path
       style="fill:#ffffff;fill-rule:evenodd;stroke:#000000;stroke-width:2px"
       inkscape:connector-curvature="0"
       id="path13802"
       d="m 947.43432,662 17,137 a 69.532,69.532 0 0 0 15,1 21.1,21.1 0 0 0 11,-4 l -23,-142 z"
       class="cls-1" />
    <path
       style="fill:#ffffff;fill-rule:evenodd;stroke:#000000;stroke-width:2px"
       inkscape:connector-curvature="0"
       id="path13800"
       d="m 855.43432,688 -8,147 c 0,0 -2.561,3.244 -14,0 -11.439,-3.244 -10,-6 -10,-6 l 13,-145 z"
       class="cls-1" />
  </g>
  <g
     id="ID-F-BA-FT-L-1"
     onclick="window.parent.fnShowDetailPart(this)"
     onmouseover="window.parent.fnOnMouseOver1(this)">
    <path
       style="fill:#ffffff;fill-rule:evenodd;stroke:#000000;stroke-width:2px"
       inkscape:connector-curvature="0"
       id="path13798"
       d="m 857.43432,633 95,20 -4,-12 -91,-18 z"
       class="cls-1" />
    <path
       style="fill:#ffffff;fill-rule:evenodd;stroke:#000000;stroke-width:2px"
       inkscape:connector-curvature="0"
       id="path13804"
       d="m 852.43432,682 99,-28 -4,-9 -96,27 z"
       class="cls-1" />
    <path
       style="fill:#ffffff;fill-rule:evenodd;stroke:#000000;stroke-width:2px"
       inkscape:connector-curvature="0"
       id="path13806"
       d="m 856.43432,449 90,19 v 13 l -90,-21 z"
       class="cls-1" />
    <path
       style="fill:#ffffff;fill-rule:evenodd;stroke:#000000;stroke-width:2px"
       inkscape:connector-curvature="0"
       id="path13808"
       d="m 856.43432,492 86,-23 v 11 l -87,25 z"
       class="cls-1" />
    <path
       style="fill:#ffffff;fill-rule:evenodd;stroke:#000000;stroke-width:2px"
       inkscape:connector-curvature="0"
       id="path13810"
       d="m 859.43432,334 84,136 4,-13 -82,-130 z"
       class="cls-1" />
    <path
       style="fill:#ffffff;fill-rule:evenodd;stroke:#000000;stroke-width:2px"
       inkscape:connector-curvature="0"
       d="m 855.43432,276 -38,39 v 15 l 38,-40 z"
       class="cls-1"
       data-name="Shape 3 copy"
       id="Shape_3_copy" />
    <path
       style="fill:#ffffff;fill-rule:evenodd;stroke:#000000;stroke-width:2px"
       inkscape:connector-curvature="0"
       d="m 831.43432,309.994 c 0,0 5.727,-4.115 11,-3.994 5.273,0.121 9,5.991 9,5.991 0,0 -1.8,280.883 -2,294.542 -0.2,13.857 -3,31.467 -3,31.467 a 31.793,31.793 0 0 1 -11,0 c -5.012,-1.13 -9,-8.521 -9,-8.521 0,0 4.056,-13.947 4,-25.941 -0.056,-11.994 1,-293.544 1,-293.544 z"
       class="cls-1"
       data-name="Shape 1 copy 2"
       id="Shape_1_copy_2" />
    <path
       style="fill:#ffffff;fill-rule:evenodd;stroke:#000000;stroke-width:2px"
       inkscape:connector-curvature="0"
       d="m 853.43432,277 110,21 -1,15 -109,-22 z"
       class="cls-1"
       data-name="Shape 2 copy"
       id="Shape_2_copy" />
    <path
       style="fill:#ffffff;fill-rule:evenodd;stroke:#000000;stroke-width:2px"
       inkscape:connector-curvature="0"
       d="m 963.43432,299 -73,9 v 13 l 73,-9 z"
       class="cls-1"
       data-name="Shape 8 copy"
       id="Shape_8_copy" />
    <path
       style="fill:#ffffff;fill-rule:evenodd;stroke:#000000;stroke-width:2px"
       inkscape:connector-curvature="0"
       id="path13816"
       d="m 892.43432,309 52,11 -2,12 -52,-14 z"
       class="cls-1" />
    <path
       style="fill:#ffffff;fill-rule:evenodd;stroke:#000000;stroke-width:2px"
       inkscape:connector-curvature="0"
       id="path13818"
       d="m 811.43432,323 7,-3 25,65 -2,13 z"
       class="cls-1" />
    <path
       style="fill:#ffffff;fill-rule:evenodd;stroke:#000000;stroke-width:2px"
       inkscape:connector-curvature="0"
       id="path13820"
       d="m 963.43432,297 -38,39 v 15 l 38,-40 z"
       class="cls-1" />
    <path
       style="fill:#ffffff;fill-rule:evenodd;stroke:#000000;stroke-width:2px"
       inkscape:connector-curvature="0"
       id="path13822"
       d="m 854.43432,278 72,58 -1,14 -72,-59 z"
       class="cls-1" />
    <path
       style="fill:#ffffff;fill-rule:evenodd;stroke:#000000;stroke-width:2px"
       inkscape:connector-curvature="0"
       id="path13824"
       d="m 835.43432,297 53,11 v 10 l -52,-9 z"
       class="cls-1" />
    <path
       style="fill:#ffffff;fill-rule:evenodd;stroke:#000000;stroke-width:2px"
       inkscape:connector-curvature="0"
       id="path13826"
       d="m 889.43432,308 -71,8 v 13 l 71,-8 z"
       class="cls-1" />
    <path
       style="fill:#ffffff;fill-rule:evenodd;stroke:#000000;stroke-width:2px"
       inkscape:connector-curvature="0"
       id="path13828"
       d="m 957.43432,312 -6,45 4,16 12,-70 z"
       class="cls-1" />
    <path
       style="fill:#ffffff;fill-rule:evenodd;stroke:#000000;stroke-width:2px"
       inkscape:connector-curvature="0"
       id="path13830"
       d="m 909.43432,323 -52,-11 -1,10 51,10 z"
       class="cls-1" />
    <path
       style="fill:#ffffff;fill-rule:evenodd;stroke:#000000;stroke-width:2px"
       inkscape:connector-curvature="0"
       d="m 957.43432,319 c 0,0 -5.727,-4.119 -11,-4 -5.273,0.119 -9,6 -9,6 0,0 1.8,281.165 2,294.838 0.2,13.871 8,39.165 8,39.165 0,0 5.954,2.967 11,2 a 13.7,13.7 0 0 0 10,-8 c 0,0 -9.056,-23.994 -9,-36 0.056,-12.006 -2,-294.003 -2,-294.003 z"
       class="cls-1"
       data-name="Shape 1 copy"
       id="Shape_1_copy" />
    <path
       style="fill:#ffffff;fill-rule:evenodd;stroke:#000000;stroke-width:2px"
       inkscape:connector-curvature="0"
       id="path13833"
       d="m 817.43432,315 110,21 -1,15 -109,-22 z"
       class="cls-1" />
    <path
       style="fill:#ffffff;fill-rule:evenodd;stroke:#000000;stroke-width:2px"
       inkscape:connector-curvature="0"
       id="path13835"
       d="m 841.43432,345 41,-17 2,15 -43,18 z"
       class="cls-1" />
    <path
       style="fill:#ffffff;fill-rule:evenodd;stroke:#000000;stroke-width:2px"
       inkscape:connector-curvature="0"
       id="path13837"
       d="m 854.43432,405 63,-66 6,7 -66,71 z"
       class="cls-1" />
    <path
       style="fill:#ffffff;fill-rule:evenodd;stroke:#000000;stroke-width:2px"
       inkscape:connector-curvature="0"
       id="path13839"
       d="m 935.43432,332 -81,145 4,14 84,-153 z"
       class="cls-1" />
    <path
       style="fill:#ffffff;fill-rule:evenodd;stroke:#000000;stroke-width:2px"
       inkscape:connector-curvature="0"
       id="path13841"
       d="m 841.43432,321 -1,12 1,19 9,-6 z"
       class="cls-1" />
    <path
       style="fill:#ffffff;fill-rule:evenodd;stroke:#000000;stroke-width:2px"
       inkscape:connector-curvature="0"
       id="path13843"
       d="m 840.43432,346 c 0,0 5.727,-4.121 11,-4 5.273,0.121 9,6 9,6 0,0 -0.8,281.319 -1,295 -0.2,13.878 -2,39 -2,39 0,0 -6.988,4.131 -12,3 a 27.792,27.792 0 0 1 -9,-4 c 0,0 3.056,-28.988 3,-41 -0.056,-12.012 1,-294 1,-294 z"
       class="cls-1" />
    <path
       style="fill:#ffffff;fill-rule:evenodd;stroke:#000000;stroke-width:2px"
       inkscape:connector-curvature="0"
       id="path13845"
       d="m 931.43432,340 17,37 -6,6 -23,-42 z"
       class="cls-1" />
    <path
       style="fill:#ffffff;fill-rule:evenodd;stroke:#000000;stroke-width:2px"
       inkscape:connector-curvature="0"
       id="path13847"
       d="m 916.43432,341 12,5 41,-44 -8,-3 z"
       class="cls-1" />
  </g>
  <text
     xml:space="preserve"
     style="font-style:normal;font-weight:normal;font-size:40px;line-height:1.25;font-family:sans-serif;letter-spacing:0px;word-spacing:0px;fill:#000000;fill-opacity:1;stroke:none"
     x="1172.8171"
     y="360.47766"
     id="text1092"><tspan
       sodipodi:role="line"
       id="tspan1090"
       x="1172.8171"
       y="360.47766"
       style="font-weight:bold">Main Deck</tspan></text>
  <path
     style="fill:none;stroke:#000000;stroke-width:5;stroke-linecap:butt;stroke-linejoin:miter;stroke-miterlimit:4;stroke-dasharray:none;stroke-opacity:1"
     d="m 999.29207,312.55445 c 151.50753,29.80297 155.03093,29.80297 155.03093,29.80297"
     id="path1124"
     inkscape:connector-curvature="0" />
  <text
     xml:space="preserve"
     style="font-style:normal;font-weight:normal;font-size:40px;line-height:1.25;font-family:sans-serif;letter-spacing:0px;word-spacing:0px;fill:#000000;fill-opacity:1;stroke:none"
     x="156.2406"
     y="733.88818"
     id="text1108"><tspan
       sodipodi:role="line"
       id="tspan1106"
       x="156.2406"
       y="733.88818"
       style="font-weight:bold">Splash Zone</tspan></text>
  <text
     xml:space="preserve"
     style="font-style:normal;font-weight:normal;font-size:40px;line-height:1.25;font-family:sans-serif;letter-spacing:0px;word-spacing:0px;fill:#000000;fill-opacity:1;stroke:none"
     x="53.093395"
     y="1175.9971"
     id="text1112"><tspan
       sodipodi:role="line"
       id="tspan1110"
       x="53.093395"
       y="1175.9971"
       style="font-weight:bold">Below Splash Zone</tspan></text>
  <path
     style="fill:none;stroke:#000000;stroke-width:5.41502523;stroke-linecap:butt;stroke-linejoin:miter;stroke-miterlimit:4;stroke-dasharray:none;stroke-opacity:1;marker-end:url(#marker6342)"
     d="m 547.46048,848.50171 3.36307,891.74859"
     id="path5688"
     inkscape:connector-curvature="0" />
  <path
     style="fill:none;stroke:#000000;stroke-width:4.43980026;stroke-linecap:butt;stroke-linejoin:miter;stroke-miterlimit:4;stroke-dasharray:none;stroke-opacity:1;marker-start:url(#Arrow1Mstart);marker-end:url(#Arrow1Mend)"
     d="m 546.72158,672.01313 v 124.30266 0.86324"
     id="path6114"
     inkscape:connector-curvature="0" />
  <path
     style="fill:none;stroke:#000000;stroke-width:5.2228632;stroke-linecap:butt;stroke-linejoin:miter;stroke-miterlimit:4;stroke-dasharray:none;stroke-opacity:1"
     d="M 565.51328,664.18017 C 804.80214,684.7698 810.36695,684.7698 810.36695,684.7698"
     id="path1124-7"
     inkscape:connector-curvature="0" />
  <path
     style="fill:none;stroke:#000000;stroke-width:5.02278233;stroke-linecap:butt;stroke-linejoin:miter;stroke-miterlimit:4;stroke-dasharray:none;stroke-opacity:1"
     d="m 571.12227,810.37355 c 221.30636,20.58963 226.45298,20.58963 226.45298,20.58963"
     id="path1124-7-9"
     inkscape:connector-curvature="0" />
</svg>
