<?xml version="1.0" encoding="UTF-8" standalone="no"?>
<svg
   xmlns:dc="http://purl.org/dc/elements/1.1/"
   xmlns:cc="http://creativecommons.org/ns#"
   xmlns:rdf="http://www.w3.org/1999/02/22-rdf-syntax-ns#"
   xmlns:svg="http://www.w3.org/2000/svg"
   xmlns="http://www.w3.org/2000/svg"
   xmlns:sodipodi="http://sodipodi.sourceforge.net/DTD/sodipodi-0.dtd"
   xmlns:inkscape="http://www.inkscape.org/namespaces/inkscape"
   id="22ab6911-c828-4f0e-b6c7-5306bce88ad6"
   data-name="Layer 1"
   viewBox="0 0 1500 700"
   version="1.1"
   sodipodi:docname="ID-F-WN-OR.svg"
   width="1500"
   height="700"
   inkscape:version="0.92.3 (2405546, 2018-03-11)"
   onload="window.parent.fnOnLoad(this)">
  <metadata
     id="metadata67">
    <rdf:RDF>
      <cc:Work
         rdf:about="">
        <dc:format>image/svg+xml</dc:format>
        <dc:type
           rdf:resource="http://purl.org/dc/dcmitype/StillImage" />
        <dc:title>orf buat pak budiman</dc:title>
      </cc:Work>
    </rdf:RDF>
  </metadata>
  <sodipodi:namedview
     pagecolor="#ffffff"
     bordercolor="#666666"
     borderopacity="1"
     objecttolerance="10"
     gridtolerance="10"
     guidetolerance="10"
     inkscape:pageopacity="0"
     inkscape:pageshadow="2"
     inkscape:window-width="2880"
     inkscape:window-height="1526"
     id="namedview65"
     showgrid="false"
     inkscape:zoom="1.0445217"
     inkscape:cx="701.65245"
     inkscape:cy="238.62304"
     inkscape:window-x="2869"
     inkscape:window-y="-11"
     inkscape:window-maximized="1"
     inkscape:current-layer="22ab6911-c828-4f0e-b6c7-5306bce88ad6"
     inkscape:snap-nodes="false" />
  <defs
     id="defs4">
    <style
       id="style2">.\38 4cc2562-d904-4ca2-8b51-d0fbe954ea4e{fill:#939598;}.\31 db8d69c-8108-451b-8a7a-9bc0feb4382d{fill:none;stroke:#6d6e71;stroke-miterlimit:10;stroke-width:9px;}.fda01985-3fad-49fb-85ce-bc266b672b64{fill:#e5e6e6;}.b0a1577f-8ceb-4beb-81c1-bf36fa317687{fill:#babcbe;}.a7596ad7-4611-4798-bbdd-f76340dd294e{fill:#d1d3d4;}</style>
    <filter
       inkscape:collect="always"
       style="color-interpolation-filters:sRGB"
       id="filter4667"
       x="-0.0098851195"
       width="1.0197702"
       y="-0.015266124"
       height="1.0305322">
      <feGaussianBlur
         inkscape:collect="always"
         stdDeviation="2.2371618"
         id="feGaussianBlur4669" />
    </filter>
    <filter
       inkscape:collect="always"
       style="color-interpolation-filters:sRGB"
       id="filter4671"
       x="-0.008880718"
       width="1.0177614"
       y="-0.018496884"
       height="1.0369938">
      <feGaussianBlur
         inkscape:collect="always"
         stdDeviation="3.6342174"
         id="feGaussianBlur4673" />
    </filter>
    <filter
       inkscape:collect="always"
       style="color-interpolation-filters:sRGB"
       id="filter4683"
       x="-0.022462499"
       width="1.044925"
       y="-0.025763442"
       height="1.0515269">
      <feGaussianBlur
         inkscape:collect="always"
         stdDeviation="2.5772961"
         id="feGaussianBlur4685" />
    </filter>
  </defs>
  <title
     id="title6">orf buat pak budiman</title>
  <g
     id="ID-F-WN-OR-L-1-Z-1-9"
     transform="translate(-19.824314,500.20519)"
     onclick="window.parent.fnShowDetailPart(this)"
     onmouseover="window.parent.fnOnMouseOver(this)"
     style="fill:#000000;filter:url(#filter4667)">
    <path
       style="fill:#000000"
       id="path26-6"
       d="m 553.36201,-163.11024 -1.9924,31.50465 c 0,0 3.1667,10.16667 18.6667,9.66667 15.5,-0.5 18.8333,-9.66667 18.8333,-9.66667 l 1.9924,-37.00465 z"
       class="f1a00ee6-6dc0-4750-9c4d-aba85e3c59e4"
       inkscape:connector-curvature="0" />
    <path
       style="fill:#000000"
       id="path28-4"
       d="m 499.36201,-220.44357 -1.9924,31.50465 c 0,0 3.1667,10.16667 18.6667,9.66667 15.5,-0.5 18.8333,-9.66667 18.8333,-9.66667 l 1.9924,-37.00465 z"
       class="f1a00ee6-6dc0-4750-9c4d-aba85e3c59e4"
       inkscape:connector-curvature="0" />
    <path
       style="fill:#000000"
       id="path30-0"
       d="m 414.02873,-111.77691 -1.99243,31.504673 c 0,0 3.16667,10.16667 18.66667,9.66667 15.5,-0.5 18.83333,-9.66667 18.83333,-9.66667 l 1.99243,-37.004673 z"
       class="f1a00ee6-6dc0-4750-9c4d-aba85e3c59e4"
       inkscape:connector-curvature="0" />
    <path
       style="fill:#000000"
       id="path32-1"
       d="m 182.02873,-127.11024 -1.99243,31.504653 c 0,0 3.16667,10.16667 18.66667,9.66667 15.5,-0.5 18.83333,-9.66667 18.83333,-9.66667 l 1.99243,-37.004653 z"
       class="f1a00ee6-6dc0-4750-9c4d-aba85e3c59e4"
       inkscape:connector-curvature="0" />
    <path
       style="fill:#000000"
       id="path34-2"
       d="m 260.02873,-121.11024 -1.99243,31.504653 c 0,0 3.16667,10.16667 18.66667,9.66667 15.5,-0.5 18.83333,-9.66667 18.83333,-9.66667 l 1.99243,-37.004653 z"
       class="f1a00ee6-6dc0-4750-9c4d-aba85e3c59e4"
       inkscape:connector-curvature="0" />
    <path
       style="fill:#000000"
       id="path36-7"
       d="m 279.52873,52.889763 v 48.999997 c 0,0 3.16667,10.16667 18.66667,9.66667 15.5,-0.5 18.83333,-9.66667 18.83333,-9.66667 V 47.389763 Z"
       class="f1a00ee6-6dc0-4750-9c4d-aba85e3c59e4"
       inkscape:connector-curvature="0" />
    <path
       style="fill:#000000"
       id="path38-3"
       d="m 422.52873,13.889763 v 49 c 0,0 3.16667,10.16667 18.66667,9.66667 15.5,-0.5 18.83333,-9.66667 18.83333,-9.66667 V 8.3897632 Z"
       class="f1a00ee6-6dc0-4750-9c4d-aba85e3c59e4"
       inkscape:connector-curvature="0" />
    <path
       style="fill:#000000"
       id="path40-0"
       d="m 49.528724,42.889763 v 49 c 0,0 3.16667,10.166667 18.66667,9.666667 15.5,-0.5 18.83333,-9.666667 18.83333,-9.666667 v -54.5 z"
       class="f1a00ee6-6dc0-4750-9c4d-aba85e3c59e4"
       inkscape:connector-curvature="0" />
    <path
       style="fill:#000000"
       id="path42-7"
       d="m 562.83159,-89.245756 -17.1965,-1.39431 c -4.23806,-0.317518 -6.378,-5.261821 -3.7087,-8.568908 l 47.9869,-59.452346 c 3.01543,-3.7359 0.58501,-9.32037 -4.204,-9.65969 l -79.537,-5.63647 29.4069,-37.70221 c 4.9567,-6.35503 0.7775,-15.66536 -7.2652,-16.18524 l 0.018,-0.0258 -144.12496,-10.06586 0.54175,-0.68414 -22.3291,-1.44373 c -10.26766,-0.66387 -20.2355,3.61305 -26.82923,11.51167 l -68.54178,82.106 -63.71668,-5.42394 c 0,0 -12,0.75 -17.75,9.75 -5.75,9 -4.5,19.5 -4.5,19.5 l 224.43164,19.37988 -0.0983,0.12012 7.63049,0.53027 37.28617,3.219726 16.0053,-23.513996 16.719,-21.4353 49.3328,3.84186 -48.6019,58.545314 c -5.90899,7.117902 -1.13677,17.925396 8.1043,18.35355 l 58.93476,2.272506 c 0,0 -6.26557,-14.228688 -0.26557,-22.728688 6,-8.5 12.27131,-5.210248 12.27131,-5.210248 z m -76.25,91.4583301 -112.65417,-7.1382002 30.3761,-38.9449999 c 4.22423,-5.415845 0.66272,-13.350307 -6.19141,-13.79345 l -2.7981,-0.18091 0.0176,-0.0258 -144.125,-10.06586 0.54175,-0.68414 -24.10975,-1.55884 c -9.14866,-0.591516 -18.03017,3.219299 -23.9053,10.25711 l -68.90563,82.54203 -64.496082,-5.49027 -5.693,3.84213 c -7.257416,4.897904 -12.594297,12.158381 -15.10311,20.54679 l -1.45389,4.86108 225.196402,19.44592 34.95447,3.24695 c 5.64171,0.345421 11.04824,-2.30636 14.22876,-6.97888 l 5.5293,-8.12341 23.08618,-29.59875 117.3557,8.362812 c 0,0 -7.76196,-17.69269 0.42624,-25.4999999 7.1667,-6.83333003 17.72294,-5.021312 17.72294,-5.021312 z M 429.5623,-132.61257 l -120.62549,-10.26837 11.187,-14.12769 121.65625,9.47412 z m 36.34399,-44.38788 -122.61461,-9.26611 17.77991,-22.45368 123.5148,8.90549 z m -168.57848,213.453054 -120.649,-10.27045 10.62178,-13.41405 122.324,8.6662 z m 36.20789,-44.2216201 -123.11023,-8.6664999 17.64612,-22.28473 123.51476,8.90549 z"
       class="9ce2e7f5-59be-4b17-aa72-111ebdbe5f9f"
       inkscape:connector-curvature="0"
       sodipodi:nodetypes="cccscccccccssccsccccccccsccsccccccccccsscccccccccccsccccccccccccccccccccc" />
  </g>
  <g
     id="ID-F-WN-OR-L-1-Z-2-2"
     transform="translate(6.8805936,-1.774722)"
     onclick="window.parent.fnShowDetailPart(this)"
     onmouseover="window.parent.fnOnMouseOver(this)"
     style="fill:#000000;filter:url(#filter4671)">
    <path
       style="fill:#000000"
       id="path8-4"
       d="m 994.49792,321.07847 -1.9924,31.50465 c 0,0 3.1667,10.16667 18.66668,9.66667 15.5,-0.5 18.8333,-9.66667 18.8333,-9.66667 l 0.3258,-32.338 z"
       class="f1a00ee6-6dc0-4750-9c4d-aba85e3c59e4"
       inkscape:connector-curvature="0" />
    <path
       style="fill:#000000"
       id="path44-1"
       d="m 735.66459,618.24514 v 49 c 0,0 3.1667,10.16667 18.6667,9.66667 15.5,-0.5 18.8333,-9.66667 18.8333,-9.66667 v -54.5 z"
       class="f1a00ee6-6dc0-4750-9c4d-aba85e3c59e4"
       inkscape:connector-curvature="0" />
    <path
       style="fill:#000000"
       id="path46-7"
       d="m 895.66459,540.24514 v 49 c 0,0 3.1667,10.16667 18.6667,9.66667 15.5,-0.5 18.8333,-9.66667 18.8333,-9.66667 v -54.5 z"
       class="f1a00ee6-6dc0-4750-9c4d-aba85e3c59e4"
       inkscape:connector-curvature="0" />
    <path
       style="fill:#000000"
       id="path48-8"
       d="m 959.66459,464.24514 v 49 c 0,0 3.1667,10.16667 18.6667,9.66667 15.50003,-0.5 18.83333,-9.66667 18.83333,-9.66667 v -54.5 z"
       class="f1a00ee6-6dc0-4750-9c4d-aba85e3c59e4"
       inkscape:connector-curvature="0" />
    <path
       style="fill:#000000"
       id="path50-7"
       d="m 1265.6646,356.24514 v 49 c 0,0 3.1667,10.16667 18.6667,9.66667 15.5,-0.5 18.8333,-9.66667 18.8333,-9.66667 v -54.5 z"
       class="f1a00ee6-6dc0-4750-9c4d-aba85e3c59e4"
       inkscape:connector-curvature="0" />
    <path
       style="fill:#000000"
       id="path52-20"
       d="m 1065.6646,340.24514 v 49 c 0,0 3.1667,10.16667 18.6667,9.66667 15.5,-0.5 18.8333,-9.66667 18.8333,-9.66667 v -54.5 z"
       class="f1a00ee6-6dc0-4750-9c4d-aba85e3c59e4"
       inkscape:connector-curvature="0" />
    <path
       style="fill:#000000"
       id="path54-3"
       d="m 1303.6646,290.24514 v 49 c 0,0 3.1667,10.16667 18.6667,9.66667 15.5,-0.5 18.8333,-9.66667 18.8333,-9.66667 v -54.5 z"
       class="f1a00ee6-6dc0-4750-9c4d-aba85e3c59e4"
       inkscape:connector-curvature="0" />
    <path
       style="fill:#000000"
       id="path56-4"
       d="m 815.16459,377.74514 -1.9924,31.50465 c 0,0 3.1667,10.16667 18.6667,9.66667 15.5,-0.5 18.8333,-9.66667 18.8333,-9.66667 l 1.9924,-37.00465 z"
       class="f1a00ee6-6dc0-4750-9c4d-aba85e3c59e4"
       inkscape:connector-curvature="0" />
    <path
       style="fill:#000000"
       id="path58-5"
       d="m 616.16459,360.24514 -1.9924,31.50465 c 0,0 3.1667,10.16667 18.6667,9.66667 15.4999,-0.5 18.8333,-9.66667 18.8333,-9.66667 l 1.9924,-37.00465 z"
       class="f1a00ee6-6dc0-4750-9c4d-aba85e3c59e4"
       inkscape:connector-curvature="0" />
    <path
       style="fill:#000000"
       id="path60-6"
       d="m 685.66459,532.24514 v 49 c 0,0 3.1667,10.16667 18.6667,9.66667 15.5,-0.5 18.8333,-9.66667 18.8333,-9.66667 v -54.5 z"
       class="f1a00ee6-6dc0-4750-9c4d-aba85e3c59e4"
       inkscape:connector-curvature="0" />
    <path
       style="fill:#000000"
       id="path62-8"
       d="m 446.19657,535.60437 334.1628,22.72305 -44.7144,57.07608 c -4.01864,5.12961 -0.66753,12.66546 5.8331,13.11728 l 27.889,1.93823 0.3205,-0.43658 324.67953,19.43658 321.5233,-152.19952 1.7826,-2.43274 c 7.0614,-9.63666 8.3321,-22.34803 3.318,-33.19181 v 0 l -335.0246,156.38871 -294.74553,-17.338 29.0175,-39.533 81.0651,5.74311 c 13.66003,0.96776 26.80418,-5.40132 34.5098,-16.72193 l 7.8038,-11.46482 -0.086,-0.006 132.90333,-184.17432 87.4187,6.79327 5.5439,0.43085 112.4737,8.53809 c 6.7804,0.51471 13.3014,-2.71068 17.0073,-8.412 l 39.2577,-60.39641 c 5.8768,-9.04125 -0.246,-21.05273 -11.015,-21.60884 l -18.8523,-0.97355 36.0987,-52.10778 c 0,0 11.25,-15.83331 -9,-20.08331 -13.7233,-2.8802 -24.6666,17.58331 -24.6666,17.58331 l -37.3885,52.28052 -38.7194,-2.57776 0.2745,-0.36945 -17.606,-0.78442 -10.2293,-0.681 -12.7789,-0.85077 30.6142,-44.85043 c 0,0 11.5,-14.83333 -8.5,-20.66667 -11.2057,-3.26833 -20.8333,14.16667 -20.8333,14.16667 l -35.8317,49.05017 -43.9557,-2.92645 c -10.4863,-0.69817 -20.5814,4.10561 -26.6537,12.68323 l -117.62103,166.14805 -21.6365,-1.62073 77.60153,-110.3439 c 5.0798,-7.2232 0.2913,-17.22139 -8.5209,-17.79111 l -18.5487,-1.19926 -0.1331,0.1795 -89.39673,-6.40833 0.1965,-0.27118 -28.0499,-1.8136 c -6.64811,-0.42983 -13.08321,2.43344 -17.2147,7.65961 l -37.0842,46.90991 -0.068,-0.006 -1.8506,2.4328 -12.8994,16.3172 0.4627,0.0322 c -3.46136,4.55034 -0.55742,11.13112 5.137,11.64124 l 116.3235,10.41959 -28.9336,39.02191 -107.3062,-8.038 0.2333,-0.32684 -36.6667,-2.5 -0.072,0.0923 -14.1204,-1.05774 86.8314,-111.326 c 4.97353,-6.37654 0.42989,-15.68277 -7.6569,-15.6828 h -10e-5 l 0.018,-0.0258 -118.2902,-8.47961 0.2069,-0.27039 -25.1623,-1.62689 c -8.45623,-0.54675 -16.64153,3.09524 -21.8967,9.7428 l -35.2897,44.63983 -0.068,-0.006 -11.0437,13.89368 c -5.23273,6.58298 -1.04259,16.34317 7.3341,17.0835 l 113.8095,10.05957 -31.7522,38.77985 -164.3476,-12.31631 c -4.20305,-0.3815 -9.78511,1.18477 -12.68606,4.25 -6.39958,5.93975 -6.09787,13.18937 -1.091,23.33525 l 212.38266,18.44521 -48.2642,62.25378 -228.2581,-16.70091 c -3.3333,-0.16667 -14.97792,-2.06457 -19.51742,6.4011 -6.1667,11.5 2.01362,24.91093 2.01362,24.91093 z m 765.13213,-230.29469 84.6799,5.673 -18.6205,27.77552 -85.8236,-6.84479 z m -94.7949,-6.35067 60.7748,4.07153 -20.204,26.13452 -58.9739,-4.70343 z m -221.56723,67.03229 -24.7928,-2.16064 19.3718,-26.72589 26.6912,1.98059 z m 61.4679,-23.923 21.8863,1.62408 -20.5898,27.76886 -21.2586,-1.85272 z m -178.0048,119.56313 171.9911,13.01843 -10.7373,15.16715 -171.3903,-13.98181 z m -84.3832,-110.74121 -26.9547,-2.30524 20.3241,-26.564 27.8209,2.06439 z m 41.5456,3.5531 19.8424,-27.37506 28.9755,2.15015 -22.4969,27.476 z m -1.6356,169.50641 13.3763,-18.74359 171.3478,14.279 -11.7794,16.63922 -64.9364,-4.57129 0.069,-0.0941 -17.235,-1.11432 z"
       class="9ce2e7f5-59be-4b17-aa72-111ebdbe5f9f"
       inkscape:connector-curvature="0"
       sodipodi:nodetypes="ccccccccccccccsccccccssscccsccccccccscccsccsccccccscccccccccccccsccccccsccccccccccccccccccccccccccccccccccccccccccccccccccccccccc" />
  </g>
  <g
     id="ID-F-WN-OR-L-1-Z-3-6"
     transform="translate(5.4186812,-7.0363978)"
     onclick="window.parent.fnShowDetailPart(this)"
     onmouseover="window.parent.fnOnMouseOver(this)"
     style="fill:#000000;filter:url(#filter4683)">
    <g
       transform="translate(-350.60965,-180.09661)"
       data-name="g1774"
       id="ee6c71cf-9e7e-4740-96df-18dab7bcfffd-3-0"
       style="fill:#ffffff;stroke:#000000">
      <path
         style="fill:#ffffff;stroke:#000000;stroke-width:9px;stroke-miterlimit:10"
         inkscape:connector-curvature="0"
         d="m 1663.875,238.07714 3.1609,20.174 a 18.76928,18.76928 0 0 1 -4.1429,13.868 l -31.0578,34.75157"
         class="1db8d69c-8108-451b-8a7a-9bc0feb4382d"
         data-name="path1772"
         id="f0a24ba6-9a2e-4781-b62d-ca76b66150ac-9-7" />
    </g>
    <g
       transform="translate(-350.60965,-180.09661)"
       data-name="g1782"
       id="95af388c-394b-40c4-91e0-f24fc3316ba2-2-2"
       style="fill:#ffffff;stroke:#000000">
      <path
         style="fill:#ffffff;stroke:#000000;stroke-width:9px;stroke-miterlimit:10"
         inkscape:connector-curvature="0"
         d="m 1782.4518,245.68277 3.1609,20.174 a 18.76928,18.76928 0 0 1 -4.1429,13.868 l -31.0578,34.75158"
         class="1db8d69c-8108-451b-8a7a-9bc0feb4382d"
         data-name="path1780"
         id="dfddfbbd-598a-4d28-a537-964edd54a5a9-9-5" />
    </g>
    <path
       style="fill:#000000"
       inkscape:connector-curvature="0"
       d="m 1308.2039,200.29994 79.5971,-96.87043 c 0,0 27.117,-8.857698 39.426,10.23574 12.5247,19.46679 -1.7148,42.40039 -1.7148,42.40039 l -59.6205,84.51435 z"
       class="fda01985-3fad-49fb-85ce-bc266b672b64"
       data-name="path1786"
       id="d1d084ab-8f26-4da1-b30f-197af6546bb4-3-1" />
    <ellipse
       style="fill:#000000"
       transform="rotate(-8.23059)"
       ry="36.673561"
       rx="34.19128"
       cy="411.29959"
       cx="1290.1572"
       class="b0a1577f-8ceb-4beb-81c1-bf36fa317687"
       data-name="ellipse1788"
       id="ef8be6ff-fd33-4a0a-9498-94841897be09-3-9" />
    <path
       style="fill:#000000"
       inkscape:connector-curvature="0"
       d="m 1196.7621,186.64608 76.8971,-93.162688 c 0,0 27.117,-8.8577 39.426,10.235738 12.5246,19.46679 1.4132,43.88968 1.4132,43.88968 l -64.5015,84.3304 z"
       class="fda01985-3fad-49fb-85ce-bc266b672b64"
       data-name="path1790"
       id="5e611bcd-ba30-4234-bcee-d60ae6f80ce5-7-8" />
    <ellipse
       style="fill:#000000"
       transform="rotate(-8.23059)"
       ry="36.03297"
       rx="34.19128"
       cy="384.39499"
       cx="1178.6948"
       class="b0a1577f-8ceb-4beb-81c1-bf36fa317687"
       data-name="ellipse1792"
       id="6fb6c743-107a-4286-867a-a19e4639cb09-3-2" />
    <path
       style="fill:#000000"
       inkscape:connector-curvature="0"
       id="path52-2-7"
       d="m 1292.3904,25.903392 -7.3333,31.66667 a 50.825,50.825 0 0 0 33.3333,10 c 19.6667,-1.33333 24.8333,-11.33333 24.8333,-11.33333 l -8,-31 z"
       class="b0a1577f-8ceb-4beb-81c1-bf36fa317687" />
    <path
       style="fill:#000000"
       inkscape:connector-curvature="0"
       id="path56-1-5"
       d="m 1411.8904,39.903392 -7.3333,31.66667 a 50.825,50.825 0 0 0 33.3333,10 c 19.6667,-1.33333 24.8333,-11.33333 24.8333,-11.33333 l -8,-31 z"
       class="b0a1577f-8ceb-4beb-81c1-bf36fa317687" />
    <ellipse
       style="fill:#000000"
       id="ellipse58-9-7"
       ry="7"
       rx="21.5"
       cy="39.903393"
       cx="1433.3904"
       class="fda01985-3fad-49fb-85ce-bc266b672b64" />
    <ellipse
       style="fill:#000000"
       id="ellipse54-7-7"
       ry="7"
       rx="21.5"
       cy="25.903391"
       cx="1313.8904"
       class="fda01985-3fad-49fb-85ce-bc266b672b64" />
  </g>
  <g
     id="ID-F-WN-OR-L-1-Z-3"
     onclick="window.parent.fnShowDetailPart(this)"
     onmouseover="window.parent.fnOnMouseOver1(this)">
    <g
       transform="translate(-350.60965,-191.58512)"
       data-name="g1774"
       id="ee6c71cf-9e7e-4740-96df-18dab7bcfffd-3">
      <path
         style="fill:none;stroke:#6d6e71;stroke-width:9px;stroke-miterlimit:10"
         inkscape:connector-curvature="0"
         d="m 1663.875,238.07714 3.1609,20.174 a 18.76928,18.76928 0 0 1 -4.1429,13.868 l -31.0578,34.75157"
         class="1db8d69c-8108-451b-8a7a-9bc0feb4382d"
         data-name="path1772"
         id="f0a24ba6-9a2e-4781-b62d-ca76b66150ac-9" />
    </g>
    <g
       transform="translate(-350.60965,-191.58512)"
       data-name="g1782"
       id="95af388c-394b-40c4-91e0-f24fc3316ba2-2">
      <path
         style="fill:none;stroke:#6d6e71;stroke-width:9px;stroke-miterlimit:10"
         inkscape:connector-curvature="0"
         d="m 1782.4518,245.68277 3.1609,20.174 a 18.76928,18.76928 0 0 1 -4.1429,13.868 l -31.0578,34.75158"
         class="1db8d69c-8108-451b-8a7a-9bc0feb4382d"
         data-name="path1780"
         id="dfddfbbd-598a-4d28-a537-964edd54a5a9-9" />
    </g>
    <path
       style="fill:#e5e6e6"
       inkscape:connector-curvature="0"
       d="m 1308.2039,188.81143 79.5971,-96.870432 c 0,0 27.117,-8.857698 39.426,10.235742 12.5247,19.46679 -1.7148,42.40039 -1.7148,42.40039 l -59.6205,84.51435 z"
       class="fda01985-3fad-49fb-85ce-bc266b672b64"
       data-name="path1786"
       id="d1d084ab-8f26-4da1-b30f-197af6546bb4-3" />
    <ellipse
       style="fill:#babcbe"
       transform="rotate(-8.23059)"
       ry="36.673561"
       rx="34.19128"
       cy="399.92941"
       cx="1291.8019"
       class="b0a1577f-8ceb-4beb-81c1-bf36fa317687"
       data-name="ellipse1788"
       id="ef8be6ff-fd33-4a0a-9498-94841897be09-3" />
    <path
       style="fill:#e5e6e6"
       inkscape:connector-curvature="0"
       d="m 1196.7621,175.15757 76.8971,-93.16269 c 0,0 27.117,-8.8577 39.426,10.235738 12.5246,19.466792 1.4132,43.889682 1.4132,43.889682 l -64.5015,84.3304 z"
       class="fda01985-3fad-49fb-85ce-bc266b672b64"
       data-name="path1790"
       id="5e611bcd-ba30-4234-bcee-d60ae6f80ce5-7" />
    <ellipse
       style="fill:#babcbe"
       transform="rotate(-8.23059)"
       ry="36.03297"
       rx="34.19128"
       cy="373.02481"
       cx="1180.3395"
       class="b0a1577f-8ceb-4beb-81c1-bf36fa317687"
       data-name="ellipse1792"
       id="6fb6c743-107a-4286-867a-a19e4639cb09-3" />
    <path
       style="fill:#babcbe"
       inkscape:connector-curvature="0"
       id="path52-2"
       d="m 1292.3904,14.41488 -7.3333,31.66667 a 50.825,50.825 0 0 0 33.3333,10 c 19.6667,-1.33333 24.8333,-11.33333 24.8333,-11.33333 l -8,-31 z"
       class="b0a1577f-8ceb-4beb-81c1-bf36fa317687" />
    <path
       style="fill:#babcbe"
       inkscape:connector-curvature="0"
       id="path56-1"
       d="m 1411.8904,28.41488 -7.3333,31.66667 a 50.825,50.825 0 0 0 33.3333,10 c 19.6667,-1.33333 24.8333,-11.33333 24.8333,-11.33333 l -8,-31 z"
       class="b0a1577f-8ceb-4beb-81c1-bf36fa317687" />
    <ellipse
       style="fill:#e5e6e6"
       id="ellipse58-9"
       ry="7"
       rx="21.5"
       cy="28.414881"
       cx="1433.3904"
       class="fda01985-3fad-49fb-85ce-bc266b672b64" />
    <ellipse
       style="fill:#e5e6e6"
       id="ellipse54-7"
       ry="7"
       rx="21.5"
       cy="14.414879"
       cx="1313.8904"
       class="fda01985-3fad-49fb-85ce-bc266b672b64" />
  </g>
  <g
     id="ID-F-WN-OR-L-1-Z-1"
     onclick="window.parent.fnShowDetailPart(this)"
     onmouseover="window.parent.fnOnMouseOver1(this)">
    <path
       style="fill:#808080"
       id="path26"
       d="m 530.38499,332.81051 -1.9924,31.50465 c 0,0 3.1667,10.16667 18.6667,9.66667 15.5,-0.5 18.8333,-9.66667 18.8333,-9.66667 l 1.9924,-37.00465 z"
       class="f1a00ee6-6dc0-4750-9c4d-aba85e3c59e4"
       inkscape:connector-curvature="0" />
    <path
       style="fill:#808080"
       id="path28"
       d="m 476.38499,275.47718 -1.9924,31.50465 c 0,0 3.1667,10.16667 18.6667,9.66667 15.5,-0.5 18.8333,-9.66667 18.8333,-9.66667 l 1.9924,-37.00465 z"
       class="f1a00ee6-6dc0-4750-9c4d-aba85e3c59e4"
       inkscape:connector-curvature="0" />
    <path
       style="fill:#808080"
       id="path30"
       d="m 391.05171,384.14384 -1.99243,31.50467 c 0,0 3.16667,10.16667 18.66667,9.66667 15.5,-0.5 18.83333,-9.66667 18.83333,-9.66667 l 1.99243,-37.00467 z"
       class="f1a00ee6-6dc0-4750-9c4d-aba85e3c59e4"
       inkscape:connector-curvature="0" />
    <path
       style="fill:#808080"
       id="path32"
       d="m 159.05171,368.81051 -1.99243,31.50465 c 0,0 3.16667,10.16667 18.66667,9.66667 15.5,-0.5 18.83333,-9.66667 18.83333,-9.66667 l 1.99243,-37.00465 z"
       class="f1a00ee6-6dc0-4750-9c4d-aba85e3c59e4"
       inkscape:connector-curvature="0" />
    <path
       style="fill:#808080"
       id="path34"
       d="m 237.05171,374.81051 -1.99243,31.50465 c 0,0 3.16667,10.16667 18.66667,9.66667 15.5,-0.5 18.83333,-9.66667 18.83333,-9.66667 l 1.99243,-37.00465 z"
       class="f1a00ee6-6dc0-4750-9c4d-aba85e3c59e4"
       inkscape:connector-curvature="0" />
    <path
       style="fill:#808080"
       id="path36"
       d="m 256.55171,548.81051 v 49 c 0,0 3.16667,10.16667 18.66667,9.66667 15.5,-0.5 18.83333,-9.66667 18.83333,-9.66667 v -54.5 z"
       class="f1a00ee6-6dc0-4750-9c4d-aba85e3c59e4"
       inkscape:connector-curvature="0" />
    <path
       style="fill:#808080"
       id="path38"
       d="m 399.55171,509.81051 v 49 c 0,0 3.16667,10.16667 18.66667,9.66667 15.5,-0.5 18.83333,-9.66667 18.83333,-9.66667 v -54.5 z"
       class="f1a00ee6-6dc0-4750-9c4d-aba85e3c59e4"
       inkscape:connector-curvature="0" />
    <path
       style="fill:#808080"
       id="path40"
       d="m 26.5517,538.81051 v 49 c 0,0 3.16667,10.16667 18.66667,9.66667 15.5,-0.5 18.83333,-9.66667 18.83333,-9.66667 v -54.5 z"
       class="f1a00ee6-6dc0-4750-9c4d-aba85e3c59e4"
       inkscape:connector-curvature="0" />
    <path
       style="fill:#b3b3b3"
       id="path42"
       d="m 539.85457,406.67499 -17.1965,-1.39431 c -4.23806,-0.31751 -6.378,-5.26182 -3.7087,-8.5689 l 47.9869,-59.45235 c 3.01543,-3.7359 0.58501,-9.32037 -4.204,-9.65969 l -79.537,-5.63647 29.4069,-37.70221 c 4.9567,-6.35503 0.7775,-15.66536 -7.2652,-16.18524 l 0.018,-0.0258 -144.12496,-10.06586 0.54175,-0.68414 -22.3291,-1.44373 c -10.26766,-0.66387 -20.2355,3.61305 -26.82923,11.51167 l -68.54178,82.106 -63.71668,-5.42394 c 0,0 -12,0.75 -17.75,9.75 -5.75,9 -4.5,19.5 -4.5,19.5 l 224.43164,19.37988 -0.0983,0.12012 7.63049,0.53027 37.28617,3.21973 16.0053,-23.514 16.719,-21.4353 49.3328,3.84186 -48.6019,58.54531 c -5.90899,7.11791 -1.13677,17.9254 8.1043,18.35355 l 58.93476,2.27251 c 0,0 -6.26557,-14.22869 -0.26557,-22.72869 6,-8.5 12.27131,-5.21025 12.27131,-5.21025 z m -76.25,91.45833 -112.65417,-7.1382 30.3761,-38.945 c 4.22423,-5.41584 0.66272,-13.3503 -6.19141,-13.79345 l -2.7981,-0.18091 0.0176,-0.0258 -144.125,-10.06586 0.54175,-0.68414 -24.10975,-1.55884 c -9.14866,-0.59151 -18.03017,3.2193 -23.9053,10.25711 l -68.90563,82.54203 -64.496086,-5.49027 -5.693,3.84213 c -7.257416,4.89791 -12.594297,12.15839 -15.10311,20.54679 l -1.45389,4.86108 225.196406,19.44592 34.95447,3.24695 c 5.64171,0.34543 11.04824,-2.30636 14.22876,-6.97888 l 5.5293,-8.12341 23.08618,-29.59875 117.3557,8.36282 c 0,0 -7.76196,-17.69269 0.42624,-25.5 7.1667,-6.83333 17.72294,-5.02132 17.72294,-5.02132 z m -57.01929,-134.82514 -120.62549,-10.26837 11.187,-14.12769 121.65625,9.47412 z m 36.34399,-44.38788 -122.61461,-9.26611 17.77991,-22.45368 123.5148,8.90549 z m -168.57848,213.45305 -120.649,-10.27045 10.62178,-13.41405 122.324,8.6662 z m 36.20789,-44.22162 -123.11023,-8.6665 17.64612,-22.28473 123.51476,8.90549 z"
       class="9ce2e7f5-59be-4b17-aa72-111ebdbe5f9f"
       inkscape:connector-curvature="0"
       sodipodi:nodetypes="cccscccccccssccsccccccccsccsccccccccccsscccccccccccsccccccccccccccccccccc" />
  </g>
  <g
     id="ID-F-WN-OR-L-1-Z-2"
     onclick="window.parent.fnShowDetailPart(this)"
     onmouseover="window.parent.fnOnMouseOver1(this)">
    <path
       style="fill:#808080"
       id="path8"
       d="m 998.32742,315.33421 -1.9924,31.50465 c 0,0 3.1667,10.16667 18.66668,9.66667 15.5,-0.5 18.8333,-9.66667 18.8333,-9.66667 l 0.3258,-32.338 z"
       class="f1a00ee6-6dc0-4750-9c4d-aba85e3c59e4"
       inkscape:connector-curvature="0" />
    <path
       style="fill:#808080"
       id="path44"
       d="m 739.49409,612.50088 v 49 c 0,0 3.1667,10.16667 18.6667,9.66667 15.5,-0.5 18.8333,-9.66667 18.8333,-9.66667 v -54.5 z"
       class="f1a00ee6-6dc0-4750-9c4d-aba85e3c59e4"
       inkscape:connector-curvature="0" />
    <path
       style="fill:#808080"
       id="path46"
       d="m 899.49409,534.50088 v 49 c 0,0 3.1667,10.16667 18.6667,9.66667 15.5,-0.5 18.8333,-9.66667 18.8333,-9.66667 v -54.5 z"
       class="f1a00ee6-6dc0-4750-9c4d-aba85e3c59e4"
       inkscape:connector-curvature="0" />
    <path
       style="fill:#808080"
       id="path48"
       d="m 963.49409,458.50088 v 49 c 0,0 3.1667,10.16667 18.6667,9.66667 15.50003,-0.5 18.83331,-9.66667 18.83331,-9.66667 v -54.5 z"
       class="f1a00ee6-6dc0-4750-9c4d-aba85e3c59e4"
       inkscape:connector-curvature="0" />
    <path
       style="fill:#808080"
       id="path50"
       d="m 1269.4941,350.50088 v 49 c 0,0 3.1667,10.16667 18.6667,9.66667 15.5,-0.5 18.8333,-9.66667 18.8333,-9.66667 v -54.5 z"
       class="f1a00ee6-6dc0-4750-9c4d-aba85e3c59e4"
       inkscape:connector-curvature="0" />
    <path
       style="fill:#808080"
       id="path52"
       d="m 1069.4941,334.50088 v 49 c 0,0 3.1667,10.16667 18.6667,9.66667 15.5,-0.5 18.8333,-9.66667 18.8333,-9.66667 v -54.5 z"
       class="f1a00ee6-6dc0-4750-9c4d-aba85e3c59e4"
       inkscape:connector-curvature="0" />
    <path
       style="fill:#808080"
       id="path54"
       d="m 1307.4941,284.50088 v 49 c 0,0 3.1667,10.16667 18.6667,9.66667 15.5,-0.5 18.8333,-9.66667 18.8333,-9.66667 v -54.5 z"
       class="f1a00ee6-6dc0-4750-9c4d-aba85e3c59e4"
       inkscape:connector-curvature="0" />
    <path
       style="fill:#808080"
       id="path56"
       d="m 818.99409,372.00088 -1.9924,31.50465 c 0,0 3.1667,10.16667 18.6667,9.66667 15.5,-0.5 18.8333,-9.66667 18.8333,-9.66667 l 1.9924,-37.00465 z"
       class="f1a00ee6-6dc0-4750-9c4d-aba85e3c59e4"
       inkscape:connector-curvature="0" />
    <path
       style="fill:#808080"
       id="path58"
       d="m 619.99409,354.50088 -1.9924,31.50465 c 0,0 3.1667,10.16667 18.6667,9.66667 15.4999,-0.5 18.8333,-9.66667 18.8333,-9.66667 l 1.9924,-37.00465 z"
       class="f1a00ee6-6dc0-4750-9c4d-aba85e3c59e4"
       inkscape:connector-curvature="0" />
    <path
       style="fill:#808080"
       id="path60"
       d="m 689.49409,526.50088 v 49 c 0,0 3.1667,10.16667 18.6667,9.66667 15.5,-0.5 18.8333,-9.66667 18.8333,-9.66667 v -54.5 z"
       class="f1a00ee6-6dc0-4750-9c4d-aba85e3c59e4"
       inkscape:connector-curvature="0" />
    <path
       style="fill:#b3b3b3"
       id="path62"
       d="m 450.02607,529.86011 334.1628,22.72305 -44.7144,57.07608 c -4.01864,5.12961 -0.66753,12.66546 5.8331,13.11728 l 27.889,1.93823 0.3205,-0.43658 324.67953,19.43658 321.5233,-152.19952 1.7826,-2.43274 c 7.0614,-9.63666 8.3321,-22.34803 3.318,-33.19181 v 0 l -335.0246,156.38871 -294.74553,-17.338 29.0175,-39.533 81.0651,5.74311 c 13.66003,0.96776 26.80418,-5.40132 34.5098,-16.72193 l 7.8038,-11.46482 -0.086,-0.006 132.90333,-184.17432 87.4187,6.79327 5.5439,0.43085 112.4737,8.53809 c 6.7804,0.51471 13.3014,-2.71068 17.0073,-8.412 l 39.2577,-60.39641 c 5.8768,-9.04125 -0.246,-21.05273 -11.015,-21.60884 l -18.8523,-0.97355 36.0987,-52.10778 c 0,0 11.25,-15.83331 -9,-20.08331 -13.7233,-2.8802 -24.6666,17.58331 -24.6666,17.58331 l -37.3885,52.28052 -38.7194,-2.57776 0.2745,-0.36945 -17.606,-0.78442 -10.2293,-0.681 -12.7789,-0.85077 30.6142,-44.85043 c 0,0 11.5,-14.83333 -8.5,-20.66667 -11.2057,-3.26833 -20.8333,14.16667 -20.8333,14.16667 l -35.8317,49.05017 -43.9557,-2.92645 c -10.4863,-0.69817 -20.5814,4.10561 -26.6537,12.68323 l -117.62103,166.14805 -21.6365,-1.62073 77.60153,-110.3439 c 5.0798,-7.2232 0.2913,-17.22139 -8.5209,-17.79111 l -18.5487,-1.19926 -0.1331,0.1795 -89.39673,-6.40833 0.1965,-0.27118 -28.0499,-1.8136 c -6.64811,-0.42983 -13.08321,2.43344 -17.2147,7.65961 l -37.0842,46.90991 -0.068,-0.006 -1.8506,2.4328 -12.8994,16.3172 0.4627,0.0322 c -3.46136,4.55034 -0.55742,11.13112 5.137,11.64124 l 116.3235,10.41959 -28.9336,39.02191 -107.3062,-8.038 0.2333,-0.32684 -36.6667,-2.5 -0.072,0.0923 -14.1204,-1.05774 86.8314,-111.326 c 4.97353,-6.37654 0.42989,-15.68277 -7.6569,-15.6828 h -1e-4 l 0.018,-0.0258 -118.2902,-8.47961 0.2069,-0.27039 -25.1623,-1.62689 c -8.45623,-0.54675 -16.64153,3.09524 -21.8967,9.7428 l -35.2897,44.63983 -0.068,-0.006 -11.0437,13.89368 c -5.23273,6.58298 -1.04259,16.34317 7.3341,17.0835 l 113.8095,10.05957 -31.7522,38.77985 -164.3476,-12.31631 c -4.20305,-0.3815 -9.78511,1.18477 -12.68606,4.25 -6.39958,5.93975 -6.09787,13.18937 -1.091,23.33525 l 212.38266,18.44521 -48.2642,62.25378 -228.2581,-16.70091 c -3.3333,-0.16667 -14.97792,-2.06457 -19.51742,6.4011 -6.1667,11.5 2.01362,24.91093 2.01362,24.91093 z m 765.13213,-230.29469 84.6799,5.673 -18.6205,27.77552 -85.8236,-6.84479 z m -94.7949,-6.35067 60.7748,4.07153 -20.204,26.13452 -58.9739,-4.70343 z m -221.56723,67.03229 -24.7928,-2.16064 19.3718,-26.72589 26.6912,1.98059 z m 61.4679,-23.923 21.8863,1.62408 -20.5898,27.76886 -21.2586,-1.85272 z m -178.0048,119.56313 171.9911,13.01843 -10.7373,15.16715 -171.3903,-13.98181 z m -84.3832,-110.74121 -26.9547,-2.30524 20.3241,-26.564 27.8209,2.06439 z m 41.5456,3.5531 19.8424,-27.37506 28.9755,2.15015 -22.4969,27.476 z m -1.6356,169.50641 13.3763,-18.74359 171.3478,14.279 -11.7794,16.63922 -64.9364,-4.57129 0.069,-0.0941 -17.235,-1.11432 z"
       class="9ce2e7f5-59be-4b17-aa72-111ebdbe5f9f"
       inkscape:connector-curvature="0"
       sodipodi:nodetypes="ccccccccccccccsccccccssscccsccccccccscccsccsccccccscccccccccccccsccccccsccccccccccccccccccccccccccccccccccccccccccccccccccccccccc" />
  </g>
</svg>
