<svg xmlns="http://www.w3.org/2000/svg" width="1793" height="869" viewBox="0 0 1793 869">
  <metadata><?xpacket begin="﻿" id="W5M0MpCehiHzreSzNTczkc9d"?>
<x:xmpmeta xmlns:x="adobe:ns:meta/" x:xmptk="Adobe XMP Core 5.6-c138 79.159824, 2016/09/14-01:09:01        ">
   <rdf:RDF xmlns:rdf="http://www.w3.org/1999/02/22-rdf-syntax-ns#">
      <rdf:Description rdf:about=""/>
   </rdf:RDF>
</x:xmpmeta>
                                                                                                    
                                                                                                    
                                                                                                    
                                                                                                    
                                                                                                    
                                                                                                    
                                                                                                    
                                                                                                    
                                                                                                    
                                                                                                    
                                                                                                    
                                                                                                    
                                                                                                    
                                                                                                    
                                                                                                    
                                                                                                    
                                                                                                    
                                                                                                    
                                                                                                    
                                                                                                    
                           
<?xpacket end="w"?></metadata>
<defs>
    <style>
      .cls-1 {
        fill: #fff;
        stroke: #000;
        stroke-linejoin: round;
        stroke-width: 12px;
      }

      .cls-1, .cls-2 {
        fill-rule: evenodd;
      }

      .cls-2 {
        fill: #292625;
      }
    </style>
  </defs>
  <path id="Shape_1_copy_2" data-name="Shape 1 copy 2" class="cls-1" d="M748.5,41.088l15-.176,3,255-15,.176Z"/>
  <path class="cls-1" d="M421,449L774,552l349-127V359L421.5,393Z"/>
  <path class="cls-1" d="M429,392L771,494l336-132L748,275Z"/>
  <path class="cls-1" d="M766.5,234.088l15-.176,3,255-15,.176Z"/>
  <path id="Shape_1_copy" data-name="Shape 1 copy" class="cls-1" d="M1108.5,104.088l15-.176,3,255-15,.176Z"/>
  <path id="Shape_1_copy_3" data-name="Shape 1 copy 3" class="cls-1" d="M416.5,132.088l15-.176,3,255-15,.176Z"/>
  <path class="cls-2" d="M149.469,406.06l5.062-14.12,385,138-5.062,14.12Z"/>
  <path class="cls-2" d="M32.618,546.028l-5.236-14.056,247-92,5.236,14.056Z"/>
  <path class="cls-2" d="M60.669,643.009l-5.338-14.018,365-139,5.338,14.018Z"/>
  <path class="cls-2" d="M94.228,563.969l5.543-13.938,176,70-5.544,13.938Z"/>
  <path class="cls-2" d="M216.909,528.833l6.182-13.666,126,57-6.182,13.666Z"/>
  <path class="cls-2" d="M277.308,495l5.384-14,182,70-5.384,14Z"/>
  <path class="cls-2" d="M54.19,435.954l5.621-13.908,193,78-5.62,13.908Z"/>
  <path class="cls-2" d="M53.651,745.016l-5.3-14.032,352-133,5.3,14.032Z"/>
  <path class="cls-2" d="M168.976,623.863l6.048-13.726,261,115-6.048,13.726Z"/>
  <path class="cls-2" d="M388.252,668.979l5.5-13.958,381,150-5.494,13.958Z"/>
  <path class="cls-2" d="M450.948,842.9l-5.9-13.792,524-224,5.9,13.792Z"/>
  <path class="cls-2" d="M487.75,493.154l4.5-14.309,779,245-4.5,14.309Z"/>
  <path class="cls-2" d="M1015.23,684.771l-6.46-13.542,191-91,6.46,13.542Z"/>
  <path class="cls-2" d="M1099.4,717.685l-6.8-13.37,230-117,6.8,13.37Z"/>
  <path class="cls-2" d="M994.912,573.2l4.176-14.408,314,91-4.18,14.408Z"/>
  <path class="cls-2" d="M752.7,613L747.3,599l303-117L1055.7,496Z"/>
  <path class="cls-2" d="M473.917,659.91l-5.834-13.82,199-84,5.834,13.82Z"/>
  <path class="cls-2" d="M429.193,588.955l5.614-13.91,223,90-5.614,13.91Z"/>
  <path class="cls-2" d="M664.768,642.16l4.463-14.32,446,139-4.46,14.32Z"/>
  <path class="cls-2" d="M820.2,632.958l5.6-13.916,179,72-5.6,13.916Z"/>
  <path class="cls-2" d="M1086.89,536.921l-5.78-13.842,194-81,5.78,13.842Z"/>
  <path class="cls-2" d="M1170.16,551.8l-6.32-13.6,372-173,6.32,13.6Z"/>
  <path class="cls-2" d="M1129.91,483.2l4.18-14.4,375,109-4.18,14.4Z"/>
  <path class="cls-2" d="M1211.03,421.237l3.94-14.474,404,110-3.94,14.474Z"/>
  <path class="cls-2" d="M1304.08,408.25l3.84-14.5,374,99-3.84,14.5Z"/>
  <path class="cls-2" d="M1395.08,519.84l-6.16-13.68,369-166,6.16,13.68Z"/>
  <path class="cls-2" d="M1242.82,392.948l-5.64-13.9,192-78,5.64,13.9Z"/>
  <path class="cls-2" d="M1219.01,303.23l3.98-14.46,232,64-3.98,14.46Z"/>
</svg>
