<svg id="tiang_bawah_" data-name="tiang bawah " xmlns="http://www.w3.org/2000/svg" width="1218" height="1584" viewBox="0 0 1218 1584">
  <metadata><?xpacket begin="﻿" id="W5M0MpCehiHzreSzNTczkc9d"?>
<x:xmpmeta xmlns:x="adobe:ns:meta/" x:xmptk="Adobe XMP Core 5.6-c138 79.159824, 2016/09/14-01:09:01        ">
   <rdf:RDF xmlns:rdf="http://www.w3.org/1999/02/22-rdf-syntax-ns#">
      <rdf:Description rdf:about=""/>
   </rdf:RDF>
</x:xmpmeta>
                                                                                                    
                                                                                                    
                                                                                                    
                                                                                                    
                                                                                                    
                                                                                                    
                                                                                                    
                                                                                                    
                                                                                                    
                                                                                                    
                                                                                                    
                                                                                                    
                                                                                                    
                                                                                                    
                                                                                                    
                                                                                                    
                                                                                                    
                                                                                                    
                                                                                                    
                                                                                                    
                           
<?xpacket end="w"?></metadata>
<defs>
    <style>
      .cls-1 {
        fill: #fff;
        stroke: #000;
        stroke-width: 6px;
        fill-rule: evenodd;
      }
    </style>
  </defs>
  <path class="cls-1" d="M388.109,234.609l13.939,5.761-31.17,75.413-13.939-5.762Z"/>
  <path class="cls-1" d="M357.9,309.133l14.033,5.527L206.024,735.966l-14.034-5.527Z"/>
  <path id="Shape_6_copy_4" data-name="Shape 6 copy 4" class="cls-1" d="M438.7,257.86s6.353-5.044,17.706-4.29,13.583,6.416,13.583,6.416L424.521,1122.64s-2.867,5.57-16.5,2.39-16.4-8.72-16.4-8.72Z"/>
  <path id="Shape_6_copy_4-2" data-name="Shape 6 copy 4" class="cls-1" d="M451.722,6.38s6.353-5.044,17.705-4.291,13.584,6.416,13.584,6.416L469.7,273.1s-2.823,6.167-16.8,5.393c-11.1-.615-15.5-7.619-15.5-7.619Z"/>
  <path class="cls-1" d="M277,226L474,67,980,169,789,321Z"/>
  <path class="cls-1" d="M960.724,194.181l14.552,3.638-38,152-14.552-3.638Z"/>
  <path id="Shape_210_copy" data-name="Shape 210 copy" class="cls-1" d="M820.316,867.649l-14.632-3.3,117-519,14.633,3.3Z"/>
  <path class="cls-1" d="M820.316,867.649l-14.632-3.3,117-519,14.633,3.3Z"/>
  <path class="cls-1" d="M982.8,182.4L985.2,167.6l80,13-2.4,14.806Zm66.723-.909,14.96-.988,13,197-14.96.988Z"/>
  <path class="cls-1" d="M1014.44,374.335l3.12-14.67,61,13-3.12,14.67Zm46.08-1.857,14.96-.956,3,47-14.96.956Z"/>
  <path class="cls-1" d="M866.507,253.316l14.986-.632,10,237-14.986.632Z"/>
  <path class="cls-1" d="M883.137,471.677l11.725-9.355,150,188-11.72,9.355Z"/>
  <path class="cls-1" d="M695.682,320.288l10.636-10.576,350,352-10.64,10.576Z"/>
  <path class="cls-1" d="M781.858,326.3l12.284-8.608,103,147L884.858,473.3Z"/>
  <path class="cls-1" d="M894.222,1255.4l-2.444-14.8,224-37,2.44,14.8Z"/>
  <path class="cls-1" d="M453.558,1167.36l2.884-14.72,444,87-2.884,14.72ZM292,1186l12.419-17.48,476-37L800,1143Z"/>
  <path class="cls-1" d="M771.9,1132.49L787,1126l206.1,191.5L982.9,1328.49Z"/>
  <path class="cls-1" d="M404.174,1059.11l13.652-6.22,51,112-13.652,6.22Z"/>
  <path class="cls-1" d="M420.491,1066.35l3.018-14.7,706,145-3.02,14.7Z"/>
  <path class="cls-1" d="M1038.77,673.005l14.46,3.989-208,754-14.46-3.98Z"/>
  <path class="cls-1" d="M763.043,831.629l7.914,12.742-343,213-7.913-12.74Z"/>
  <path class="cls-1" d="M194.724,742.107l12.552-8.214,214,327-12.552,8.22Z"/>
  <path class="cls-1" d="M121.683,1302.86l-9.366-11.72,294-235,9.366,11.72Z"/>
  <path class="cls-1" d="M122.822,1283.12l-13.644-6.24,258-565,13.644,6.23Z"/>
  <path class="cls-1" d="M797.833,899.437l10.333-10.874,320,302-10.34,10.88Z"/>
  <path class="cls-1" d="M801.607,871.212l10.786-10.424,318,329-10.78,10.42Z"/>
  <path class="cls-1" d="M446.163,566.732l9.674-11.464,346,292-9.674,11.464Z"/>
  <path class="cls-1" d="M116.375,1305.37l-2.75-14.74,252-47,2.75,14.74Z"/>
  <path class="cls-1" d="M487.5,798.83l15,0.34-6,265-15-.34Z"/>
  <path class="cls-1" d="M792.483,745.081l11.034-10.162,70,76-11.033,10.162Z"/>
  <path class="cls-1" d="M851.01,806.338l-8.021-12.676,128-81,8.021,12.675Z"/>
  <path class="cls-1" d="M974.19,711.544l1.619,14.912-175,19-1.62-14.912Z"/>
  <path class="cls-1" d="M815.392,690.49l-0.785-14.98,229-12,0.78,14.98Z"/>
  <path class="cls-1" d="M801.514,664.916l-11.028,10.168-59-64,11.028-10.167Z"/>
  <path class="cls-1" d="M729.5,602.1l15-.2,1,75-15,.2Z"/>
  <path class="cls-1" d="M734.865,599.586l2.27,14.828-196,30-2.27-14.828Z"/>
  <path class="cls-1" d="M418.974,574.375l14.052,5.25-34,91-14.051-5.25Z"/>
  <path class="cls-1" d="M796.126,541.262l3.748-14.524,62,16-3.748,14.524Zm50.379-6.994,14.99-.536,2,56-14.99.536Z"/>
  <path id="Shape_181_copy_20" data-name="Shape 181 copy 20" class="cls-1" d="M466.338,1202.31l3.324-14.62,44,10-3.324,14.62Z"/>
  <path id="Shape_181_copy_21" data-name="Shape 181 copy 21" class="cls-1" d="M423.338,1243.31l3.324-14.62,44,10-3.324,14.62Z"/>
  <path id="Shape_181_copy_22" data-name="Shape 181 copy 22" class="cls-1" d="M514.338,1262.31l3.324-14.62,44,10-3.324,14.62Z"/>
  <path id="Shape_181_copy_23" data-name="Shape 181 copy 23" class="cls-1" d="M553.338,1216.31l3.324-14.62,44,10-3.324,14.62Z"/>
  <path id="Shape_181_copy_24" data-name="Shape 181 copy 24" class="cls-1" d="M643.338,1234.31l3.324-14.62,44,10-3.324,14.62Z"/>
  <path id="Shape_181_copy_25" data-name="Shape 181 copy 25" class="cls-1" d="M601.338,1282.31l3.324-14.62,44,10-3.324,14.62Z"/>
  <path id="Shape_181_copy_26" data-name="Shape 181 copy 26" class="cls-1" d="M693.338,1295.31l3.324-14.62,44,10-3.324,14.62Z"/>
  <path id="Shape_181_copy_27" data-name="Shape 181 copy 27" class="cls-1" d="M732.338,1256.31l3.324-14.62,44,10-3.324,14.62Z"/>
  <path id="Shape_181_copy_18" data-name="Shape 181 copy 18" class="cls-1" d="M726.338,710.313l3.324-14.627,44,10-3.324,14.627Z"/>
  <path id="Shape_181_copy_19" data-name="Shape 181 copy 19" class="cls-1" d="M689.338,747.313l3.324-14.627,44,10-3.324,14.627Z"/>
  <path id="Shape_170_copy_4" data-name="Shape 170 copy 4" class="cls-1" d="M625.75,1184.64l10.5,10.72-100,98-10.5-10.72Z"/>
  <path id="Shape_181_copy_5" data-name="Shape 181 copy 5" class="cls-1" d="M606.338,1214.31l3.324-14.62,44,10-3.324,14.62Z"/>
  <path id="Shape_181_copy_5-2" data-name="Shape 181 copy 5" class="cls-1" d="M590.338,1234.31l3.324-14.62,44,10-3.324,14.62Z"/>
  <path id="Shape_181_copy_5-3" data-name="Shape 181 copy 5" class="cls-1" d="M567.338,1254.31l3.324-14.62,44,10-3.324,14.62Z"/>
  <path id="Shape_181_copy_5-4" data-name="Shape 181 copy 5" class="cls-1" d="M551.338,1274.31l3.324-14.62,44,10-3.324,14.62Z"/>
  <path id="Shape_170_copy_4-2" data-name="Shape 170 copy 4" class="cls-1" d="M667.75,1195.64l10.5,10.72-100,98-10.5-10.72Z"/>
  <path id="Shape_170_copy_6" data-name="Shape 170 copy 6" class="cls-1" d="M713.751,1202.64l10.5,10.72-100,98-10.5-10.72Z"/>
  <path id="Shape_181_copy_7" data-name="Shape 181 copy 7" class="cls-1" d="M694.338,1232.31l3.324-14.62,44,10-3.324,14.62Z"/>
  <path id="Shape_181_copy_7-2" data-name="Shape 181 copy 7" class="cls-1" d="M678.338,1252.31l3.324-14.62,44,10-3.324,14.62Z"/>
  <path id="Shape_181_copy_7-3" data-name="Shape 181 copy 7" class="cls-1" d="M655.338,1272.31l3.324-14.62,44,10-3.324,14.62Z"/>
  <path id="Shape_181_copy_7-4" data-name="Shape 181 copy 7" class="cls-1" d="M639.338,1292.31l3.324-14.62,44,10-3.324,14.62Z"/>
  <path id="Shape_170_copy_6-2" data-name="Shape 170 copy 6" class="cls-1" d="M755.751,1213.64l10.5,10.72-100,98-10.5-10.72Z"/>
  <path id="Shape_170_copy_7" data-name="Shape 170 copy 7" class="cls-1" d="M796.75,1216.64l10.5,10.72-100,98-10.5-10.72Z"/>
  <path id="Shape_181_copy_8" data-name="Shape 181 copy 8" class="cls-1" d="M777.338,1246.31l3.324-14.62,44,10-3.324,14.62Z"/>
  <path id="Shape_181_copy_8-2" data-name="Shape 181 copy 8" class="cls-1" d="M761.338,1266.31l3.324-14.62,44,10-3.324,14.62Z"/>
  <path id="Shape_181_copy_8-3" data-name="Shape 181 copy 8" class="cls-1" d="M738.338,1286.31l3.324-14.62,44,10-3.324,14.62Z"/>
  <path id="Shape_181_copy_8-4" data-name="Shape 181 copy 8" class="cls-1" d="M722.338,1306.31l3.324-14.62,44,10-3.324,14.62Z"/>
  <path id="Shape_170_copy_7-2" data-name="Shape 170 copy 7" class="cls-1" d="M838.75,1227.64l10.5,10.72-100,98-10.5-10.72Z"/>
  <path id="Shape_170_copy_8" data-name="Shape 170 copy 8" class="cls-1" d="M538.751,1168.64l10.5,10.72-100,98-10.5-10.72Z"/>
  <path id="Shape_181_copy_9" data-name="Shape 181 copy 9" class="cls-1" d="M519.338,1198.31l3.324-14.62,44,10-3.324,14.62Z"/>
  <path id="Shape_181_copy_9-2" data-name="Shape 181 copy 9" class="cls-1" d="M503.338,1218.31l3.324-14.62,44,10-3.324,14.62Z"/>
  <path id="Shape_181_copy_9-3" data-name="Shape 181 copy 9" class="cls-1" d="M480.338,1238.31l3.324-14.62,44,10-3.324,14.62Z"/>
  <path id="Shape_181_copy_9-4" data-name="Shape 181 copy 9" class="cls-1" d="M464.338,1258.31l3.324-14.62,44,10-3.324,14.62Z"/>
  <path id="Shape_170_copy_8-2" data-name="Shape 170 copy 8" class="cls-1" d="M580.75,1179.64l10.5,10.72-100,98-10.5-10.72Z"/>
  <path id="Shape_170_copy_9" data-name="Shape 170 copy 9" class="cls-1" d="M445.75,1151.64l10.5,10.72-100,98-10.5-10.72Z"/>
  <path id="Shape_181_copy_10" data-name="Shape 181 copy 10" class="cls-1" d="M426.338,1181.31l3.324-14.62,44,10-3.324,14.62Z"/>
  <path id="Shape_181_copy_10-2" data-name="Shape 181 copy 10" class="cls-1" d="M410.338,1201.31l3.324-14.62,44,10-3.324,14.62Z"/>
  <path id="Shape_181_copy_10-3" data-name="Shape 181 copy 10" class="cls-1" d="M387.338,1221.31l3.324-14.62,44,10-3.324,14.62Z"/>
  <path id="Shape_181_copy_10-4" data-name="Shape 181 copy 10" class="cls-1" d="M371.338,1241.31l3.324-14.62,44,10-3.324,14.62Z"/>
  <path id="Shape_170_copy_9-2" data-name="Shape 170 copy 9" class="cls-1" d="M487.75,1162.64l10.5,10.72-100,98-10.5-10.72Z"/>
  <path class="cls-1" d="M206.289,744.494l-0.579-14.989,233-9,0.579,14.989Z"/>
  <path class="cls-1" d="M431,734l4-13,73.628,81.042L492,805Z"/>
  <path class="cls-1" d="M499,807l-13-11.433L681,771l8,12.433Z"/>
  <path class="cls-1" d="M273.119,1196.69l9.762-11.38,217,186L487,1379Zm511.95,144.17,13.862-5.73,31,75.01-13.862,5.72Zm-300.307,37.6-1.525-14.92,499-51,1.525,14.92ZM348.517,1258.35l2.966-14.7,451,91-2.966,14.7Z"/>
  <path class="cls-1" d="M674,781l22-1,82.827,71.26-9.654,11.48Z"/>
  <path class="cls-1" d="M327.012,341.44l13.463-6.8,99.544,197.078-13.463,6.8Z"/>
  <path class="cls-1" d="M204.52,750.352l2.96-14.7,596,120-2.96,14.7Z"/>
  <path class="cls-1" d="M208.9,748.011l-9.738-11.518L433.446,538.409l9.738,11.518Z"/>
  <path class="cls-1" d="M193.455,747.05l11.09-10.1,633,695-11.09,10.1Z"/>
  <path class="cls-1" d="M794.105,865.591l7.79,12.818-673,409-7.79-12.82Z"/>
  <path class="cls-1" d="M118.567,1308.36l2.866-14.72,714,139-2.866,14.72Z"/>
  <path class="cls-1" d="M841.747,1445.81l-9.494-11.62,285-233,9.5,11.62Z"/>
  <path class="cls-1" d="M443.956,560.628l2.795-14.821L1044.01,658.423l-2.79,14.821Z"/>
  <path class="cls-1" d="M271.732,234.9l13.418-6.887,58.319,113.622-13.418,6.887Z"/>
  <path class="cls-1" d="M760.716,311.794l8.77,12.271L454.4,544.168l-4.385-14.18Z"/>
  <path class="cls-1" d="M765.756,320.836l8.778,12.264L562.374,487.948,553.6,475.683Z"/>
  <path class="cls-1" d="M558.565,472.708l8.862,12.2L212,743l-2.342-16.9Z"/>
  <path class="cls-1" d="M274.7,240.352l11.51-9.747L475.24,453.826l-11.51,9.748Z"/>
  <path class="cls-1" d="M270.819,700.276l-3.638-14.552,128-32,3.638,14.552Z"/>
  <path id="Shape_6_copy_2" data-name="Shape 6 copy 2" class="cls-1" d="M232.132,404.729s6.747-4.459,17.924-2.7,12.877,7.59,12.877,7.59L124.365,1360.67s-3.342,5.29-16.558.92-15.46-10.14-15.46-10.14Z"/>
  <path class="cls-1" d="M383.558,610.36l2.884-14.72L988,714l-17.442,11.36Z"/>
  <path class="cls-1" d="M446.751,605.643l10.5,10.714-100,98-10.5-10.714Z"/>
  <path class="cls-1" d="M427.338,635.313l3.324-14.627,44,10-3.324,14.627Z"/>
  <path id="Shape_181_copy" data-name="Shape 181 copy" class="cls-1" d="M411.338,655.313l3.324-14.627,44,10-3.324,14.627Z"/>
  <path id="Shape_181_copy_2" data-name="Shape 181 copy 2" class="cls-1" d="M388.338,675.313l3.324-14.627,44,10-3.324,14.627Z"/>
  <path id="Shape_181_copy_2-2" data-name="Shape 181 copy 2" class="cls-1" d="M372.338,695.313l3.324-14.627,44,10-3.324,14.627Z"/>
  <path id="Shape_170_copy" data-name="Shape 170 copy" class="cls-1" d="M488.751,616.643l10.5,10.714-100,98-10.5-10.714Z"/>
  <path id="Shape_181_copy_12" data-name="Shape 181 copy 12" class="cls-1" d="M416.338,698.313l3.324-14.627,44,10-3.324,14.627Z"/>
  <path id="Shape_181_copy_13" data-name="Shape 181 copy 13" class="cls-1" d="M466.338,655.313l3.324-14.627,44,10-3.324,14.627Z"/>
  <path id="Shape_170_copy_2" data-name="Shape 170 copy 2" class="cls-1" d="M536.75,624.643l10.5,10.713-100,98-10.5-10.713Z"/>
  <path id="Shape_181_copy_3" data-name="Shape 181 copy 3" class="cls-1" d="M517.338,654.313l3.324-14.626,44,10-3.324,14.627Z"/>
  <path id="Shape_181_copy_3-2" data-name="Shape 181 copy 3" class="cls-1" d="M501.338,674.313l3.324-14.627,44,10-3.324,14.627Z"/>
  <path id="Shape_181_copy_3-3" data-name="Shape 181 copy 3" class="cls-1" d="M478.338,694.313l3.324-14.627,44,10-3.324,14.627Z"/>
  <path id="Shape_181_copy_3-4" data-name="Shape 181 copy 3" class="cls-1" d="M462.338,714.313l3.324-14.627,44,10-3.324,14.627Z"/>
  <path id="Shape_170_copy_2-2" data-name="Shape 170 copy 2" class="cls-1" d="M578.75,635.643l10.5,10.713-100,98-10.5-10.713Z"/>
  <path id="Shape_181_copy_14" data-name="Shape 181 copy 14" class="cls-1" d="M552.338,674.313l3.324-14.627,44,10-3.324,14.627Z"/>
  <path id="Shape_181_copy_15" data-name="Shape 181 copy 15" class="cls-1" d="M512.338,719.313l3.324-14.627,44,10-3.324,14.627Z"/>
  <path id="Shape_170_copy_3" data-name="Shape 170 copy 3" class="cls-1" d="M620.75,640.643l10.5,10.713-100,98-10.5-10.713Z"/>
  <path id="Shape_181_copy_4" data-name="Shape 181 copy 4" class="cls-1" d="M601.338,670.313l3.324-14.627,44,10-3.324,14.627Z"/>
  <path id="Shape_181_copy_4-2" data-name="Shape 181 copy 4" class="cls-1" d="M585.338,690.313l3.324-14.627,44,10-3.324,14.627Z"/>
  <path id="Shape_181_copy_4-3" data-name="Shape 181 copy 4" class="cls-1" d="M562.338,710.313l3.324-14.627,44,10-3.324,14.627Z"/>
  <path id="Shape_181_copy_4-4" data-name="Shape 181 copy 4" class="cls-1" d="M546.338,730.313l3.324-14.627,44,10-3.324,14.627Z"/>
  <path id="Shape_170_copy_3-2" data-name="Shape 170 copy 3" class="cls-1" d="M662.75,651.643l10.5,10.713-100,98-10.5-10.713Z"/>
  <path id="Shape_170_copy_5" data-name="Shape 170 copy 5" class="cls-1" d="M791.751,675.643l10.5,10.713-100,98-10.5-10.714Z"/>
  <path id="Shape_181_copy_6" data-name="Shape 181 copy 6" class="cls-1" d="M772.338,705.313l3.324-14.627,44,10-3.324,14.627Z"/>
  <path id="Shape_181_copy_16" data-name="Shape 181 copy 16" class="cls-1" d="M595.338,738.313l3.324-14.627,44,10-3.324,14.627Z"/>
  <path id="Shape_181_copy_17" data-name="Shape 181 copy 17" class="cls-1" d="M643.338,687.313l3.324-14.627,44,10-3.324,14.627Z"/>
  <path id="Shape_181_copy_6-2" data-name="Shape 181 copy 6" class="cls-1" d="M756.338,725.313l3.324-14.627,44,10-3.324,14.627Z"/>
  <path id="Shape_181_copy_6-3" data-name="Shape 181 copy 6" class="cls-1" d="M733.338,745.313l3.324-14.627,44,10-3.324,14.627Z"/>
  <path id="Shape_170_copy_10" data-name="Shape 170 copy 10" class="cls-1" d="M705.751,657.643l10.5,10.713-100,98-10.5-10.714Z"/>
  <path id="Shape_181_copy_11" data-name="Shape 181 copy 11" class="cls-1" d="M686.338,687.313l3.324-14.627,44,10-3.324,14.627Z"/>
  <path id="Shape_181_copy_11-2" data-name="Shape 181 copy 11" class="cls-1" d="M670.338,707.313l3.324-14.627,44,10-3.324,14.627Z"/>
  <path id="Shape_181_copy_11-3" data-name="Shape 181 copy 11" class="cls-1" d="M647.338,727.313l3.324-14.627,44,10-3.324,14.627Z"/>
  <path id="Shape_181_copy_11-4" data-name="Shape 181 copy 11" class="cls-1" d="M631.338,747.313l3.324-14.627,44,10-3.324,14.627Z"/>
  <path id="Shape_170_copy_10-2" data-name="Shape 170 copy 10" class="cls-1" d="M747.75,668.643l10.5,10.714-100,98-10.5-10.714Z"/>
  <path id="Shape_181_copy_6-4" data-name="Shape 181 copy 6" class="cls-1" d="M717.338,765.313l3.324-14.627,44,10-3.324,14.627Z"/>
  <path id="Shape_170_copy_5-2" data-name="Shape 170 copy 5" class="cls-1" d="M833.751,686.643l10.5,10.714-100,98-10.5-10.714Z"/>
  <path id="Shape_6_copy_2-2" data-name="Shape 6 copy 2" class="cls-1" d="M267.667,155.536s6.747-4.459,17.924-2.7,12.877,7.591,12.877,7.591l-37.011,262.22s-3.351,5.889-17.126,3.881c-10.939-1.6-14.663-8.957-14.663-8.957Z"/>
  <path id="Shape_6_copy_3" data-name="Shape 6 copy 3" class="cls-1" d="M1016.29,355.758s-6.8-4.383-17.946-2.5-12.782,7.736-12.782,7.736L1128.84,1283.51s3.4,5.25,16.56.73,15.33-10.31,15.33-10.31Z"/>
  <path id="Shape_6_copy_3-2" data-name="Shape 6 copy 3" class="cls-1" d="M977.945,106.958s-6.793-4.383-17.943-2.5-12.782,7.736-12.782,7.736l39.965,261.811s3.416,5.851,17.155,3.686c10.92-1.719,14.55-9.124,14.55-9.124Z"/>
  <path class="cls-1" d="M377.617,601.322L390,592l10,62-14,13Z"/>
  <path class="cls-1" d="M264.535,701.356l2.929-14.712,603,122-2.929,14.711Z"/>
  <path class="cls-1" d="M814.865,871.708l-9.73-11.416,237-202,9.73,11.416Z"/>
  <path class="cls-1" d="M461.62,460.437l11.709-9.507,329.8,406.223-11.709,9.507Z"/>
  <path class="cls-1" d="M776.161,510.986s5.786-5.651,17.094-6.033,14.077,5.028,14.077,5.028L853.59,1519.63s-2.285,5.83-16.088,4.02-17.094-7.03-17.094-7.03Z"/>
  <path id="Shape_6_copy" data-name="Shape 6 copy" class="cls-1" d="M764.1,259.561s5.786-5.651,17.094-6.033,14.077,5.027,14.077,5.027l13.071,264.5s-2.181,6.415-16.088,7.039c-11.044.5-16.088-6.033-16.088-6.033Z"/>
  <path class="cls-1" d="M867.427,345.712l5.145,8.575-45,27-5.145-8.575ZM820.36,364.959l1.28-9.918,62,8-1.28,9.918Z"/>
  <path class="cls-1" d="M858.184,386.5l-4.369-9,70-34,4.369,9ZM922,356.2L912,355.8l3-76L925,280.2Zm0.28-37.649-4.552,8.9-45-23,4.552-8.9Z"/>
  <path class="cls-1" d="M916.951,351.963l6.1-7.926L938,357l-8.049,4.963ZM927,356h10v95H927V356Z"/>
  <path id="Shape_228_copy" data-name="Shape 228 copy" class="cls-1" d="M901.951,360.963l6.1-7.926L923,366l-8.049,4.963ZM912,365h10v95H912V365Z"/>
  <path id="Shape_228_copy_2" data-name="Shape 228 copy 2" class="cls-1" d="M887.951,368.963l6.1-7.926L909,374l-8.049,4.963ZM898,373h10v95H898V373Z"/>
  <path id="Shape_228_copy_3" data-name="Shape 228 copy 3" class="cls-1" d="M871.951,374.963l6.1-7.926L893,380l-8.049,4.963ZM882,379h10v95H882V379Z"/>
  <path id="Shape_228_copy_4" data-name="Shape 228 copy 4" class="cls-1" d="M854.951,382.963l6.1-7.926L876,388l-8.049,4.963ZM865,387h10v95H865V387Z"/>
  <path class="cls-1" d="M851.948,482.56l4.1-9.12,20,9-4.1,9.12Zm20.7,8.68-5.3-8.48,64-40,5.3,8.48Z"/>
  <path id="Shape_217_copy" data-name="Shape 217 copy" class="cls-1" d="M883.137,471.677l11.725-9.355,150,188-11.72,9.355Z"/>
  <path id="Shape_215_copy" data-name="Shape 215 copy" class="cls-1" d="M695.682,320.288l10.636-10.576,350,352-10.64,10.576Z"/>
  <path id="Shape_230_copy" data-name="Shape 230 copy" class="cls-1" d="M851.948,482.56l4.1-9.12,20,9-4.1,9.12Zm20.7,8.68-5.3-8.48,64-40,5.3,8.48Z"/>
  <path id="Shape_230_copy_2" data-name="Shape 230 copy 2" class="cls-1" d="M855.948,460.559l4.1-9.119,20,9-4.1,9.119Zm20.7,8.681-5.3-8.48,64-40,5.3,8.48Z"/>
  <path id="Shape_230_copy_3" data-name="Shape 230 copy 3" class="cls-1" d="M855.948,440.559l4.1-9.119,20,9-4.1,9.119Zm20.7,8.681-5.3-8.48,64-40,5.3,8.48Z"/>
  <path id="Shape_230_copy_4" data-name="Shape 230 copy 4" class="cls-1" d="M855.948,420.559l4.1-9.119,20,9-4.1,9.119Zm20.7,8.681-5.3-8.48,64-40,5.3,8.48Z"/>
  <path id="Shape_230_copy_5" data-name="Shape 230 copy 5" class="cls-1" d="M852.948,403.56l4.1-9.12,20,9-4.1,9.12Zm20.7,8.68-5.3-8.48,64-40,5.3,8.48Z"/>
  <path class="cls-1" d="M794.293,377.95l1.414-9.9,63,9-1.414,9.9ZM838,377.917l10,0.166-2,121-10-.166ZM843.884,490l0.232,10-43,1-0.232-10Z"/>
  <path class="cls-1" d="M793.3,378.439l-4.6-8.878,54-28,4.6,8.878Z"/>
  <path class="cls-1" d="M842.547,351.979l0.906-9.959,77,7-0.906,9.959Z"/>
  <path class="cls-1" d="M788.263,338.464l1.474-14.928,81,8-1.474,14.928Zm68.246-6.828,14.982,0.728-10,206-14.982-.728Z"/>
</svg>
